<?xml version="1.0" encoding="utf-8"?>
<!-- Generator: Adobe Illustrator 22.0.0, SVG Export Plug-In . SVG Version: 6.00 Build 0)  -->
<svg version="1.1" id="Layer_1" xmlns="http://www.w3.org/2000/svg" xmlns:xlink="http://www.w3.org/1999/xlink" x="0px" y="0px"
	 viewBox="0 0 531.9 168.5" style="enable-background:new 0 0 531.9 168.5;" xml:space="preserve">
<style type="text/css">
	*{fill:white;}
</style>
<g>
	<g transform="translate(0,-270.542)">
		<path class="st0" d="M351,271.7c-7.1-3.1-15.5,0.1-18.6,7.3c-3.1,7.1,0.2,15.5,7.3,18.6c1.9,0.8,3.8,1.2,5.8,1.2l2.5,14.4
			c-2.8,1-5.3,2.9-7.1,5.5l-6.9-3c1.6-6.5-1.6-13.6-8-16.4c-7.1-3.1-15.5,0.2-18.6,7.3c-3.1,7.1,0.1,15.5,7.3,18.6
			c6.4,2.8,13.8,0.4,17.5-5.2l6.9,3c-0.8,3-0.5,6.2,0.7,8.9l-12.3,7.9c-1.3-1.4-2.9-2.6-4.8-3.5c-7.1-3.1-15.5,0.2-18.6,7.3
			c-3.1,7.1,0.1,15.5,7.3,18.6c7.1,3.1,15.5-0.2,18.6-7.3c1.6-3.7,1.5-7.7,0-11.2l12.3-7.9c1.3,1.4,2.9,2.6,4.8,3.5
			c6.4,2.8,13.8,0.4,17.5-5.2l6.9,3c-1.5,5.8,0.9,11.9,5.9,15.2l-3,6.8c-6.6-1.6-13.6,1.6-16.4,8c-3.1,7.1,0.1,15.5,7.3,18.6
			c7.1,3.1,15.5-0.1,18.6-7.3c2.8-6.4,0.5-13.8-5.2-17.5l3-6.9c5.8,1.4,11.9-1,15.2-5.9l6.9,3c-1.6,6.6,1.6,13.6,8,16.4
			c6.4,2.8,13.8,0.4,17.5-5.2l6.9,3c-1.5,5.8,0.9,11.9,5.9,15.2l-3,6.8c-6.6-1.6-13.6,1.6-16.4,8c-3.1,7.1,0.1,15.5,7.3,18.6
			c7.1,3.1,15.5-0.1,18.6-7.3c2.8-6.4,0.4-13.7-5.2-17.5l3-6.9c5.8,1.4,11.9-1,15.2-5.9l6.9,3c-1.6,6.6,1.6,13.6,8,16.4
			c1.9,0.8,3.8,1.2,5.8,1.2l2.5,14.4c-3.5,1.3-6.6,3.9-8.2,7.6c-3.1,7.1,0.1,15.5,7.3,18.6c7.1,3.1,15.5-0.1,18.6-7.3
			c3.1-7.1-0.2-15.5-7.3-18.6c-1.9-0.8-3.8-1.2-5.8-1.2l-2.5-14.4c2.8-1,5.3-2.9,7.1-5.5l6.9,3c-1.6,6.6,1.6,13.6,8,16.4
			c7.1,3.1,15.5-0.1,18.6-7.3c3.1-7.1-0.2-15.5-7.3-18.6c-6.4-2.8-13.7-0.4-17.4,5.2l-6.9-3c0.8-3,0.5-6.2-0.7-8.9l12.3-7.9
			c1.3,1.4,2.9,2.6,4.8,3.4c7.1,3.1,15.5-0.1,18.6-7.3c3.1-7.1-0.1-15.5-7.3-18.6s-15.5,0.1-18.6,7.3c-1.6,3.7-1.5,7.7,0,11.2
			l-12.3,7.9c-1.3-1.4-2.9-2.6-4.8-3.4c-6.4-2.8-13.7-0.4-17.4,5.2l-6.9-3c1.4-5.8-1-11.9-5.9-15.2l3-6.9c6.5,1.6,13.6-1.6,16.3-8
			c3.1-7.1-0.1-15.5-7.3-18.6s-15.5,0.2-18.6,7.3c-2.8,6.4-0.5,13.7,5.2,17.4l-3,6.9c-5.8-1.5-11.9,0.9-15.2,5.9l-6.9-3
			c1.6-6.5-1.6-13.6-8-16.4c-6.4-2.8-13.7-0.4-17.4,5.2l-6.9-3c1.4-5.8-1-11.9-5.9-15.2l3-6.9c6.5,1.6,13.6-1.6,16.4-8
			c3.1-7.1-0.2-15.5-7.3-18.6c-7.1-3.1-15.5,0.2-18.6,7.3c-2.8,6.4-0.4,13.7,5.2,17.4l-3,6.9c-5.8-1.4-11.9,0.9-15.2,5.9l-6.9-3
			c1.6-6.5-1.6-13.6-8-16.4c-1.9-0.8-3.8-1.2-5.8-1.2l-2.5-14.4c3.5-1.3,6.6-3.9,8.2-7.6C361.4,283.2,358.1,274.8,351,271.7
			L351,271.7z M349.1,276c4.8,2.1,6.9,7.6,4.8,12.4c-2.1,4.8-7.6,6.9-12.4,4.8c-4.8-2.1-6.9-7.6-4.8-12.4
			C338.8,276.1,344.3,273.9,349.1,276L349.1,276z M403,299.7c4.8,2.1,6.9,7.6,4.8,12.4c-2.1,4.8-7.6,6.9-12.4,4.8
			c-4.8-2.1-7-7.6-4.8-12.4C392.7,299.7,398.2,297.6,403,299.7L403,299.7z M467.6,328c4.8,2.1,6.9,7.6,4.8,12.4
			c-2.1,4.8-7.6,6.9-12.4,4.8c-4.8-2.1-6.9-7.6-4.8-12.4C457.3,328.1,462.9,325.9,467.6,328L467.6,328z M521.5,351.6
			c4.8,2.1,6.9,7.6,4.8,12.4c-2.1,4.8-7.6,6.9-12.4,4.8c-4.8-2.1-6.9-7.6-4.8-12.4C511.2,351.7,516.8,349.5,521.5,351.6L521.5,351.6
			z M324.1,303.6c4.8,2.1,6.9,7.6,4.8,12.4c-2.1,4.8-7.6,6.9-12.4,4.8c-4.8-2.1-6.9-7.6-4.8-12.4
			C313.8,303.7,319.4,301.5,324.1,303.6z M356.5,317.8c4.8,2.1,6.9,7.6,4.8,12.4c-2.1,4.8-7.6,6.9-12.4,4.8
			c-4.8-2.1-6.9-7.6-4.8-12.4C346.2,317.9,351.7,315.7,356.5,317.8z M388.8,332c4.8,2.1,6.9,7.6,4.8,12.4c-2.1,4.8-7.6,6.9-12.4,4.8
			c-4.8-2.1-6.9-7.6-4.8-12.4C378.5,332,384,329.9,388.8,332z M421.1,346.2c4.8,2.1,6.9,7.6,4.8,12.4c-2.1,4.8-7.6,6.9-12.4,4.8
			c-4.8-2.1-6.9-7.6-4.8-12.4C410.8,346.2,416.4,344.1,421.1,346.2z M453.5,360.3c4.8,2.1,6.9,7.6,4.8,12.4
			c-2.1,4.8-7.6,6.9-12.4,4.8c-4.8-2.1-6.9-7.6-4.8-12.4C443.2,360.4,448.7,358.2,453.5,360.3z M485.8,374.5
			c4.8,2.1,6.9,7.6,4.8,12.4c-2.1,4.8-7.6,6.9-12.4,4.8c-4.8-2.1-6.9-7.6-4.8-12.4C475.5,374.6,481,372.4,485.8,374.5z M518.1,388.7
			c4.8,2.1,6.9,7.6,4.8,12.4c-2.1,4.8-7.6,6.9-12.4,4.8c-4.8-2.1-6.9-7.6-4.8-12.4C507.8,388.7,513.3,386.6,518.1,388.7z
			 M320.8,340.7c4.8,2.1,6.9,7.6,4.9,12.4c-2.1,4.8-7.6,6.9-12.4,4.8c-4.8-2.1-6.9-7.6-4.8-12.4C310.5,340.8,316,338.6,320.8,340.7
			L320.8,340.7z M374.6,364.3c4.8,2.1,6.9,7.6,4.8,12.4c-2.1,4.8-7.6,6.9-12.4,4.8c-4.8-2.1-6.9-7.6-4.8-12.4
			C364.3,364.4,369.8,362.2,374.6,364.3L374.6,364.3z M439.3,392.7c4.8,2.1,6.9,7.6,4.8,12.4c-2.1,4.8-7.6,6.9-12.4,4.8
			c-4.8-2.1-6.9-7.6-4.8-12.4C429,392.7,434.5,390.6,439.3,392.7z M493.2,416.3c4.8,2.1,6.9,7.6,4.8,12.4c-2.1,4.8-7.6,6.9-12.4,4.8
			c-4.8-2.1-6.9-7.6-4.8-12.4C482.9,416.3,488.4,414.2,493.2,416.3z"/>
	</g>
	<g>
		<path d="M32.5,133c-0.2-2.1-1.3-3.9-3.2-5.3s-4.6-2.1-8.2-2.1c-4,0-7.1,1-9.4,3s-3.4,4.9-3.4,8.8s1.1,6.8,3.4,8.8s5.4,3,9.4,3
			c3.6,0,6.4-0.7,8.3-2.2s2.9-3.4,3.1-5.9h9c-0.1,4.5-2,8.1-5.5,10.6s-8.5,3.8-14.8,3.8c-3.2,0-6-0.4-8.6-1.1s-4.8-1.8-6.7-3.3
			s-3.3-3.4-4.4-5.7s-1.5-5-1.5-8s0.5-5.7,1.5-8s2.5-4.2,4.4-5.7s4.1-2.6,6.7-3.3s5.4-1.1,8.6-1.1c6.3,0,11.1,1.2,14.7,3.7
			s5.4,5.8,5.6,10H32.5z"/>
		<path d="M66.1,128c1.8,0,3.5,0.2,4.9,0.6s2.8,0.9,3.9,1.7s2,1.7,2.6,3s0.9,2.6,0.9,4.3v17.1H71V140c0-2.1-0.6-3.6-1.9-4.5
			s-3.2-1.4-5.7-1.4c-1.1,0-2.2,0.1-3.2,0.4s-1.9,0.7-2.8,1.2s-1.6,1.3-2.1,2.3s-0.8,2.2-0.8,3.5v13.1h-7.5v-34.8h7.5V132h0.2
			C57.4,129.4,61.2,128,66.1,128z"/>
		<path d="M117.6,141.6c0,0.5,0,1.1-0.1,1.8h-26c0.5,4.5,3.6,6.8,9.4,6.8c1.4,0,2.6-0.1,3.7-0.4s1.9-0.6,2.4-1s1-0.8,1.3-1.2
			s0.5-0.8,0.6-1.2h8.3c-0.1,1-0.4,1.9-0.8,2.7s-1,1.6-1.8,2.4s-1.8,1.5-3,2s-2.7,1-4.5,1.3s-3.9,0.5-6.3,0.5
			c-5.6,0-9.9-1.2-12.8-3.6s-4.4-5.8-4.4-10.2c0-4.4,1.4-7.8,4.3-10.2s7.1-3.6,12.6-3.6s9.7,1.2,12.6,3.6S117.6,137.2,117.6,141.6z
			 M100.7,133c-5,0-8,1.8-8.9,5.4h17.8C108.7,134.8,105.7,133,100.7,133z"/>
		<path d="M181.3,120.3v34.3h-15.8v-21.3h-0.4l-8.7,21.3h-11.2l-8.8-21.4h-0.4v21.4h-14.8v-34.3h23.3l6.1,16.3h0.4l6-16.3H181.3z"/>
		<path d="M228.5,150.4c0,0.7,0,1.3,0,1.5s0,0.7,0.1,1.1s0.2,0.8,0.3,1.2v0.3h-15.3c-0.3-0.4-0.4-1.3-0.4-2.6v-0.9
			c-1.3,1.4-3.3,2.6-5.8,3.4s-5.7,1.3-9.2,1.3c-1.6,0-3.1-0.1-4.5-0.3s-2.7-0.5-3.9-0.9s-2.3-1-3.2-1.6s-1.6-1.5-2.1-2.5
			s-0.8-2.2-0.8-3.5c0-1.5,0.2-2.8,0.7-3.9s1.2-1.9,2.1-2.6s2.1-1.1,3.3-1.5s2.8-0.5,4.5-0.7l15.1-1.1c1-0.1,1.8-0.2,2.2-0.5
			s0.7-0.6,0.7-1.1c0-0.6-0.4-1-1.2-1.3s-2-0.4-3.7-0.4c-3.1,0-5,0.8-5.7,2.3h-16.4c0.1-1.3,0.3-2.4,0.8-3.3s1.1-1.8,2-2.4
			s1.9-1.2,3.1-1.7s2.6-0.8,4.3-1.1s3.4-0.4,5.3-0.5s3.9-0.2,6.3-0.2c2.5,0,4.6,0,6.4,0.1s3.5,0.2,5.2,0.5s3.1,0.5,4.2,0.9
			s2.1,0.9,3,1.6s1.5,1.4,1.9,2.3s0.6,2,0.6,3.2V150.4z M213,143.3v-0.7c-0.5,0.3-1.3,0.5-2.4,0.6l-7.5,0.9c-1.2,0.1-2,0.4-2.6,0.8
			s-0.8,0.9-0.8,1.7c0,0.8,0.3,1.3,1,1.6s1.7,0.5,3.1,0.5c1.7,0,3.2-0.2,4.5-0.5s2.4-1,3.3-1.8S213,144.6,213,143.3z"/>
		<path d="M260.7,138.7l15.1,15.8h-19.1l-7.1-7.8l-3.4,2.5v5.3h-15.5v-34.8h15.5v16.8l10.1-8.1h18.1L260.7,138.7z"/>
		<path d="M319.2,141.5c0,1.2,0,2.2-0.1,3h-30.5c0.2,1.4,0.9,2.5,2,3.2s2.9,1.1,5.3,1.1c3.5,0,5.7-0.7,6.4-2.2h16.5
			c-0.1,0.9-0.3,1.6-0.6,2.3s-0.7,1.4-1.4,2.1s-1.5,1.4-2.6,1.9s-2.5,1-4.1,1.5s-3.6,0.8-6.1,1s-5.2,0.3-8.3,0.3
			c-4.3,0-8-0.3-11-0.9s-5.5-1.5-7.3-2.8s-3.1-2.7-3.9-4.4s-1.2-3.7-1.2-6.1c0-1.9,0.3-3.5,0.8-5s1.3-2.8,2.5-4s2.6-2.2,4.4-2.9
			s4-1.4,6.7-1.8s5.7-0.6,9.1-0.6c4.2,0,7.8,0.3,10.8,0.9s5.4,1.6,7.3,2.8s3.2,2.7,4,4.5S319.2,139.2,319.2,141.5z M295.8,134.3
			c-2.2,0-3.8,0.3-5,0.9s-1.9,1.5-2.2,2.6h14.3c-0.3-1.2-1.1-2.1-2.2-2.6S298,134.3,295.8,134.3z"/>
		<path d="M321.3,128.5h15.3v3.9h0.3c1.8-1.6,3.8-2.8,6.1-3.5s5.2-1.1,8.8-1.1c1.3,0,2.5,0.1,3.6,0.2v13.7c-1.9-0.4-4-0.5-6.3-0.5
			c-0.9,0-1.7,0-2.5,0.1s-1.6,0.1-2.4,0.3s-1.6,0.3-2.3,0.6s-1.4,0.6-2,0.9s-1.2,0.9-1.6,1.4s-0.8,1.2-1.1,2s-0.4,1.6-0.4,2.6v5.5
			h-15.5V128.5z"/>
		<path d="M384.9,136.1c-0.6-1.5-2.6-2.3-6-2.3c-2.1,0-3.5,0.1-4.3,0.4s-1.2,0.7-1.2,1.2c0,0.5,0.3,0.8,0.8,1s1.5,0.4,3,0.5L392,138
			c2,0.1,3.6,0.4,4.9,0.7s2.5,0.8,3.5,1.4s1.7,1.5,2.2,2.6s0.7,2.4,0.7,3.9c0,1.1-0.2,2.1-0.5,3s-0.8,1.6-1.4,2.3s-1.4,1.2-2.4,1.7
			s-2.1,0.8-3.3,1.1s-2.6,0.5-4.3,0.7s-3.4,0.3-5.2,0.3s-3.9,0.1-6.3,0.1c-2.3,0-4.2,0-5.9-0.1s-3.4-0.2-5.1-0.3s-3.1-0.4-4.3-0.7
			s-2.3-0.7-3.4-1.1s-1.9-1-2.6-1.7s-1.2-1.4-1.6-2.3s-0.6-1.9-0.7-3.1h17.7c0.4,1,1,1.7,1.9,2.1s2.3,0.6,4.1,0.6
			c2.4,0,4-0.2,4.8-0.5s1.3-0.8,1.3-1.4c0-0.5-0.2-0.9-0.7-1.1s-1.4-0.4-2.8-0.5l-13.6-1.2c-1.6-0.1-3-0.3-4.2-0.6s-2.3-0.5-3.3-0.9
			s-1.9-0.9-2.5-1.5s-1.1-1.3-1.5-2.2s-0.5-1.9-0.5-3.1c0-1.3,0.2-2.4,0.6-3.3s1.1-1.8,2-2.4s1.9-1.2,3.1-1.6s2.6-0.8,4.3-1
			s3.5-0.4,5.2-0.5s3.9-0.1,6.3-0.1c2.1,0,4,0,5.7,0.1s3.3,0.2,5,0.3s3.1,0.4,4.3,0.7s2.3,0.6,3.4,1.1s1.9,1,2.6,1.6
			s1.2,1.3,1.6,2.2s0.6,1.8,0.7,2.9H384.9z"/>
	</g>
</g>
</svg>
