<?xml version="1.0" encoding="utf-8"?>
<!-- Generator: Adobe Illustrator 22.0.0, SVG Export Plug-In . SVG Version: 6.00 Build 0)  -->
<svg version="1.1" id="Layer_1" xmlns="http://www.w3.org/2000/svg" xmlns:xlink="http://www.w3.org/1999/xlink" x="0px" y="0px"
	 viewBox="0 0 261.9 190.1" style="enable-background:new 0 0 261.9 190.1;" xml:space="preserve">
<style type="text/css">
	.st0{fill:#FFFFFF;}
	.st1{fill:#007AFF;}
	.st2{fill:#231F20;}
	.st3{fill:#FFF200;}
</style>
<g>
	<path class="st0" d="M105,187H12c-6.6,0-12-5.4-12-12V12C0,5.4,5.4,0,12,0h93c6.6,0,12,5.4,12,12v163C117,181.6,111.6,187,105,187z
		"/>
	<g>
		<path class="st1" d="M24.4,17.2c0,1.1-0.3,1.9-0.8,2.6s-1.3,1.2-2.3,1.5l0.5,0.8l-1.7,0.7l-0.7-1.1c-0.6,0.1-1.2,0.1-1.9,0.1
			c-2.3,0-4-0.4-5.2-1.1s-1.7-1.9-1.7-3.5s0.6-2.7,1.7-3.5s2.8-1.1,5.2-1.1s4,0.4,5.2,1.1S24.4,15.6,24.4,17.2z M18.9,17.5l0.6,1
			c0.3-0.3,0.5-0.7,0.5-1.3c0-0.6-0.2-1.1-0.6-1.4s-1.1-0.5-1.9-0.5s-1.4,0.2-1.9,0.5s-0.6,0.8-0.6,1.4s0.2,1.1,0.6,1.4
			s1.1,0.5,1.9,0.5c0.1,0,0.2,0,0.2,0l-0.6-0.9L18.9,17.5z"/>
		<path class="st1" d="M33.4,12.9h3.9v4.6c0,0.8-0.1,1.5-0.4,2s-0.7,1-1.2,1.3s-1.2,0.6-1.9,0.7s-1.6,0.2-2.7,0.2
			c-1,0-1.9-0.1-2.7-0.2s-1.4-0.4-1.9-0.7s-0.9-0.8-1.2-1.3s-0.4-1.2-0.4-2v-4.6h3.9v4.5c0,0.5,0.2,0.9,0.6,1.2s0.9,0.4,1.6,0.4
			c0.7,0,1.2-0.1,1.6-0.4s0.6-0.7,0.6-1.2V12.9z"/>
		<path class="st1" d="M42,15.1v1h6.6v2H42v1.1h7v2.3H38.1v-8.6h10.8v2.2H42z"/>
		<path class="st1" d="M57.5,15.5c-0.1-0.5-0.7-0.8-1.8-0.8c-0.6,0-1,0.1-1.3,0.2S54,15.1,54,15.3c0,0.2,0.1,0.3,0.2,0.4
			s0.5,0.1,0.9,0.2l3.7,0.3c0.6,0,1.1,0.1,1.5,0.2s0.8,0.3,1.1,0.5s0.5,0.5,0.7,0.8s0.2,0.7,0.2,1.1c0,0.4,0,0.7-0.1,1
			s-0.2,0.5-0.4,0.7s-0.4,0.4-0.7,0.6s-0.6,0.3-0.9,0.4s-0.7,0.2-1.2,0.2s-1,0.1-1.5,0.1s-1.1,0-1.8,0c-0.9,0-1.7,0-2.3-0.1
			s-1.2-0.2-1.8-0.3s-1-0.3-1.3-0.6s-0.6-0.5-0.8-0.9s-0.3-0.8-0.3-1.3H54c0.1,0.4,0.3,0.6,0.6,0.8s0.8,0.2,1.4,0.2
			c1.2,0,1.8-0.2,1.8-0.7c0-0.2-0.1-0.3-0.3-0.4s-0.5-0.1-0.9-0.2l-3.5-0.3c-0.5,0-0.9-0.1-1.2-0.2s-0.7-0.2-1-0.3s-0.6-0.3-0.7-0.5
			s-0.3-0.4-0.5-0.7s-0.2-0.6-0.2-1c0-0.4,0.1-0.8,0.3-1.2s0.4-0.6,0.8-0.8s0.8-0.4,1.3-0.5s1.1-0.2,1.7-0.3s1.4-0.1,2.2-0.1
			c0.8,0,1.6,0,2.2,0.1s1.2,0.1,1.7,0.3s0.9,0.3,1.3,0.5s0.6,0.5,0.8,0.8s0.3,0.7,0.3,1.2H57.5z"/>
		<path class="st1" d="M74.4,12.9v3h-4v5.6h-3.9v-5.6h-4v-3H74.4z"/>
		<path class="st1" d="M78.9,21.5H75v-8.6h3.9V21.5z"/>
		<path class="st1" d="M81.2,13.7c1.1-0.8,2.8-1.1,5.2-1.1s4,0.4,5.2,1.1s1.7,1.9,1.7,3.5s-0.6,2.7-1.7,3.5s-2.8,1.1-5.2,1.1
			s-4-0.4-5.2-1.1s-1.7-1.9-1.7-3.5S80.1,14.5,81.2,13.7z M84.5,18.6c0.4,0.3,1.1,0.5,1.9,0.5s1.4-0.2,1.9-0.5s0.6-0.8,0.6-1.4
			s-0.2-1.1-0.6-1.4s-1.1-0.5-1.9-0.5s-1.4,0.2-1.9,0.5s-0.6,0.8-0.6,1.4S84,18.3,84.5,18.6z"/>
		<path class="st1" d="M102.4,12.9h3.7v8.6h-4.5l-4.1-4.4h-0.1v4.4h-3.7v-8.6h4.5l4,4.3h0.1V12.9z"/>
	</g>
	<g>
		<path class="st2" d="M78.7,167.6c0-1.5,0-3,0-4.6l0,0c0.8,0,1.5,0,2.3,0c0-0.8,0-1.5,0-2.3c-0.8,0-1.5,0-2.3,0l0,0
			c0-0.8,0-1.5,0-2.3c1.5,0,3,0,4.6,0c0-0.8,0-1.5,0-2.3c0.8,0,1.5,0,2.3,0c0,0.8,0,1.5,0,2.3c0.8,0,1.5,0,2.3,0c0-1.5,0-3,0-4.6
			l0,0c0.1,0,0.2,0,0.3,0c2.2,0,4.4,0,6.6,0c0,0.8,0,1.5,0,2.3c0.8,0,1.5,0,2.3,0c0-0.8,0-1.5,0-2.3c-0.8,0-1.5,0-2.3,0
			c0-0.8,0-1.5,0-2.3c-1.5,0-3,0-4.6,0c0-1.5,0-3,0-4.5c-2.3,0-4.6,0-6.9,0c0,0.8,0,1.5,0,2.3c-1.5,0-3,0-4.5,0c0,1.5,0,3,0,4.6
			c0.8,0,1.5,0,2.3,0c0,0.8,0,1.5,0,2.3c-0.8,0-1.5,0-2.3,0c0,0.8,0,1.5,0,2.3c-0.8,0-1.5,0-2.3,0c0-0.8,0-1.5,0-2.3
			c-2.3,0-4.6,0-6.8,0c0-0.8,0-1.5,0-2.3c2.3,0,4.5,0,6.8,0c0-6.1,0-12.2,0-18.3c0.8,0,1.5,0,2.3,0l0,0c0,2.2,0,4.4,0,6.6
			c0,0.1,0,0.2,0,0.2c0.8,0,1.5,0,2.3,0c0-1.5,0-3,0-4.5c0.8,0,1.5,0,2.3,0c0,1.5,0,3,0,4.6c0.8,0,1.5,0,2.3,0l0,0
			c0,0.8,0,1.5,0,2.3c3.8,0,7.6,0,11.4,0c0,0.8,0,1.5,0,2.3c0.8,0,1.5,0,2.3,0c0,0.8,0,1.5,0,2.3l0,0c-0.8,0-1.5,0-2.3,0
			c0,0.8,0,1.5,0,2.3c0.8,0,1.5,0,2.3,0l0,0c0,1.5,0,3,0,4.6c0.8,0,1.5,0,2.3,0l0,0c0,1.5,0,3,0,4.6c-0.8,0-1.5,0-2.3,0
			c0,1.5,0,3,0,4.6c0.8,0,1.5,0,2.3,0l0,0c0,0.8,0,1.5,0,2.3c1.5,0,3,0,4.6,0c0,0.8,0,1.5,0,2.3c-2.3,0-4.5,0-6.8,0c0,1.5,0,3,0,4.6
			c-0.8,0-1.5,0-2.3,0c0-0.7,0-1.5,0-2.3c-1.5,0-3.1,0-4.6,0l0,0c0-0.8,0-1.5,0-2.3c-0.8,0-1.5,0-2.3,0c0-0.8,0-1.5,0-2.3
			c1.5,0,3,0,4.5,0c0-0.8,0-1.5,0-2.3c-3.8,0-7.6,0-11.4,0c0,0.7,0,1.5,0,2.3C81.7,167.5,80.2,167.5,78.7,167.6L78.7,167.6z
			 M92.4,160.7c0-0.8,0-1.5,0-2.3c-0.8,0-1.5,0-2.3,0c0,0.8,0,1.5,0,2.3C90.9,160.7,91.6,160.7,92.4,160.7c0,0.8,0,1.5,0,2.3
			c1.5,0,3,0,4.5,0c0-0.8,0-1.5,0-2.3C95.4,160.7,93.9,160.7,92.4,160.7z M87.8,160.7c-0.8,0-1.5,0-2.3,0c0,0.8,0,1.5,0,2.3
			c0.8,0,1.5,0,2.3,0C87.8,162.2,87.8,161.5,87.8,160.7z M92.4,149.3c0.8,0,1.5,0,2.3,0c0-0.8,0-1.5,0-2.3c-0.8,0-1.5,0-2.3,0
			C92.4,147.8,92.4,148.5,92.4,149.3z"/>
		<path class="st2" d="M58.2,142.4c0-5.3,0-10.6,0-16c5.3,0,10.6,0,16,0c0,5.3,0,10.6,0,16C68.8,142.4,63.5,142.4,58.2,142.4z
			 M60.4,128.7c0,3.8,0,7.6,0,11.4c3.8,0,7.6,0,11.4,0c0-3.8,0-7.6,0-11.4C68,128.7,64.3,128.7,60.4,128.7z"/>
		<path class="st2" d="M106.1,142.4c-5.3,0-10.6,0-16,0c0-5.3,0-10.6,0-16c5.3,0,10.6,0,16,0C106.1,131.8,106.1,137.1,106.1,142.4z
			 M103.8,128.7c-3.8,0-7.6,0-11.4,0c0,3.8,0,7.6,0,11.4c3.8,0,7.6,0,11.4,0C103.8,136.3,103.8,132.6,103.8,128.7z"/>
		<path class="st2" d="M58.2,158.4c5.3,0,10.6,0,16,0c0,5.3,0,10.6,0,16c-5.3,0-10.6,0-16,0C58.2,169.1,58.2,163.8,58.2,158.4z
			 M71.8,160.7c-3.8,0-7.6,0-11.4,0c0,3.8,0,7.6,0,11.4c3.8,0,7.6,0,11.4,0C71.8,168.3,71.8,164.5,71.8,160.7z"/>
		<path class="st2" d="M78.7,135.6c0-1.5,0-3,0-4.6c-0.8,0-1.5,0-2.3,0c0-1.5,0-3,0-4.6c3.8,0,7.6,0,11.4,0c0,1.5,0,3,0,4.5
			c-0.8,0-1.5,0-2.3,0c0,0.8,0,1.5,0,2.3c0.7,0,1.5,0,2.3,0c0,1.5,0,3,0,4.6c-0.8,0-1.5,0-2.3,0c0-0.8,0-1.5,0-2.3
			c-0.8,0-1.5,0-2.3,0c0-0.8,0-1.5,0-2.3c-0.8,0-1.5,0-2.3,0c0,0.7,0,1.5,0,2.3C80.2,135.6,79.5,135.6,78.7,135.6
			C78.7,135.6,78.7,135.6,78.7,135.6z M81,131c0.8,0,1.5,0,2.3,0c0-0.8,0-1.5,0-2.3c-0.8,0-1.5,0-2.3,0C81,129.5,81,130.2,81,131z"
			/>
		<path class="st2" d="M69.6,147c0,0.8,0,1.5,0,2.3c1.5,0,3,0,4.6,0c0,0.8,0,1.5,0,2.3c-2.3,0-4.5,0-6.8,0c0,1.5,0,3,0,4.6
			c-3,0-6.1,0-9.1,0c0-1.5,0-3,0-4.5c0.7,0,1.5,0,2.3,0c0,0.7,0,1.5,0,2.3c1.5,0,3,0,4.6,0c0-2.3,0-4.6,0-6.8l0,0
			C66.5,147,68,147,69.6,147L69.6,147z"/>
		<path class="st2" d="M78.7,167.5c0,0.8,0,1.5,0,2.3c0.8,0,1.5,0,2.3,0c0,0.8,0,1.5,0,2.3c0.8,0,1.5,0,2.3,0c0,0.8,0,1.5,0,2.3
			c-2.3,0-4.5,0-6.8,0c0-2.3,0-4.5,0-6.8C77.2,167.6,77.9,167.6,78.7,167.5C78.7,167.6,78.7,167.5,78.7,167.5z"/>
		<path class="st2" d="M65,147c-1.5,0-3,0-4.6,0c0,0.8,0,1.5,0,2.3c-0.8,0-1.5,0-2.3,0c0-1.5,0-3,0-4.5c2.3,0,4.5,0,6.8,0
			C65,145.5,65,146.2,65,147C65,147,65,147,65,147z"/>
		<path class="st2" d="M106.1,151.6c-0.8,0-1.5,0-2.3,0c0-1.5,0-3,0-4.6c-0.8,0-1.5,0-2.3,0c0-0.8,0-1.5,0-2.3c1.5,0,3,0,4.5,0
			C106.1,147,106.1,149.3,106.1,151.6z"/>
		<path class="st2" d="M69.6,147c0-0.8,0-1.5,0-2.3c1.5,0,3,0,4.6,0c0,0.7,0,1.5,0,2.3C72.6,147,71.1,147,69.6,147
			C69.6,147,69.6,147,69.6,147z"/>
		<path class="st2" d="M101.5,156.1c0-0.8,0-1.5,0-2.3c0.8,0,1.5,0,2.3,0c0,0.7,0,1.5,0,2.3C103,156.1,102.3,156.1,101.5,156.1
			C101.5,156.1,101.5,156.1,101.5,156.1z"/>
		<path class="st2" d="M103.8,158.4c0.8,0,1.5,0,2.3,0c0,0.8,0,1.5,0,2.3c-0.7,0-1.5,0-2.3,0C103.8,159.9,103.8,159.2,103.8,158.4z"
			/>
		<path class="st2" d="M85.6,142.4c0-0.8,0-1.5,0-2.3c0.8,0,1.5,0,2.3,0c0,0.7,0,1.5,0,2.3C87.1,142.4,86.3,142.4,85.6,142.4
			C85.5,142.4,85.6,142.4,85.6,142.4z"/>
		<path class="st2" d="M78.7,163c-0.8,0-1.5,0-2.3,0c0-0.8,0-1.5,0-2.3c0.8,0,1.5,0,2.3,0l0,0C78.7,161.5,78.7,162.2,78.7,163
			L78.7,163z"/>
		<path class="st2" d="M101.5,165.3c0-0.8,0-1.5,0-2.3c0.8,0,1.5,0,2.3,0c0,0.7,0,1.5,0,2.3C103,165.3,102.3,165.3,101.5,165.3
			C101.5,165.3,101.5,165.3,101.5,165.3z"/>
		<path class="st2" d="M99.2,149.3c0.8,0,1.5,0,2.3,0c0,0.8,0,1.5,0,2.3c-0.8,0-1.5,0-2.3,0l0,0C99.3,150.8,99.3,150,99.2,149.3
			L99.2,149.3z"/>
		<path class="st2" d="M87.8,172.1c-0.8,0-1.5,0-2.3,0c0-0.8,0-1.5,0-2.3c0.7,0,1.5,0,2.3,0C87.8,170.6,87.8,171.3,87.8,172.1z"/>
		<path class="st2" d="M92.4,172.1c0,0.8,0,1.5,0,2.3c-0.8,0-1.5,0-2.3,0c0-0.7,0-1.5,0-2.3C90.9,172.1,91.6,172.1,92.4,172.1
			C92.4,172.1,92.4,172.1,92.4,172.1z"/>
		<path class="st2" d="M106.1,174.4c-0.8,0-1.5,0-2.3,0c0-0.8,0-1.5,0-2.3c0.7,0,1.5,0,2.3,0C106.1,172.9,106.1,173.6,106.1,174.4z"
			/>
		<path class="st2" d="M87.8,153.8c-0.8,0-1.5,0-2.3,0c0-0.8,0-1.5,0-2.3c0.7,0,1.5,0,2.3,0C87.8,152.3,87.8,153.1,87.8,153.8
			C87.8,153.9,87.8,153.8,87.8,153.8z"/>
		<path class="st2" d="M69.6,137.9c-2.3,0-4.5,0-6.8,0c0-2.3,0-4.5,0-6.8c2.3,0,4.5,0,6.8,0C69.6,133.3,69.6,135.6,69.6,137.9z"/>
		<path class="st2" d="M94.7,137.9c0-2.3,0-4.5,0-6.8c2.3,0,4.5,0,6.8,0c0,2.3,0,4.5,0,6.8C99.3,137.9,97,137.9,94.7,137.9z"/>
		<path class="st2" d="M62.7,169.8c0-2.3,0-4.5,0-6.8c2.3,0,4.5,0,6.8,0c0,2.3,0,4.5,0,6.8C67.3,169.8,65,169.8,62.7,169.8z"/>
	</g>
	<path class="st3" d="M82.1,117c18.5,0,33.5,15,33.5,33.5c0,18.5-15,33.5-33.5,33.5c-18.5,0-33.5-15-33.5-33.5
		C48.6,132.1,63.6,117,82.1,117 M82.1,111c-21.8,0-39.5,17.7-39.5,39.5s17.7,39.5,39.5,39.5s39.5-17.7,39.5-39.5S104,111,82.1,111
		L82.1,111z"/>
	<g>
		<path class="st0" d="M142.7,34.3c-2.9,0-5.2-0.6-6.7-1.8c-1.5-1.2-2.3-3-2.4-5.3h5.8c0.1,0.9,0.4,1.5,0.9,2
			c0.5,0.5,1.3,0.7,2.5,0.7c0.8,0,1.5-0.2,2-0.6c0.5-0.4,0.7-0.9,0.7-1.5c0-0.6-0.2-1.1-0.7-1.3c-0.5-0.3-1.3-0.5-2.7-0.7
			c-3-0.4-5.1-1-6.2-2c-1.2-1-1.8-2.6-1.8-4.7c0-1.9,0.7-3.5,2.2-4.7c1.5-1.2,3.5-1.8,6-1.8c5.2,0,8,2.2,8.3,6.6H145
			c-0.2-1.5-1.1-2.3-2.7-2.3c-0.8,0-1.4,0.2-1.8,0.5c-0.4,0.3-0.6,0.8-0.6,1.3c0,0.6,0.2,1.1,0.7,1.4c0.5,0.3,1.3,0.5,2.6,0.7
			c2.8,0.3,4.9,0.9,6.2,1.9c1.3,0.9,1.9,2.5,1.9,4.7c0,2-0.8,3.7-2.3,5C147.4,33.6,145.3,34.3,142.7,34.3z"/>
		<path class="st0" d="M160.8,34.3c-2.4,0-4.4-0.7-5.9-2.1c-1.5-1.4-2.3-3.3-2.3-5.8v-0.2c0-2.5,0.8-4.5,2.3-5.9
			c1.6-1.4,3.5-2.2,5.9-2.2c1.3,0,2.5,0.2,3.6,0.6s2,1.1,2.7,2.1c0.7,1,1.2,2.2,1.3,3.7h-5c-0.2-1.5-1.1-2.2-2.5-2.2
			c-0.9,0-1.7,0.3-2.2,1c-0.5,0.7-0.8,1.6-0.8,2.9v0.2c0,2.7,1,4.1,3,4.1c0.7,0,1.4-0.2,1.8-0.7c0.5-0.4,0.8-1.1,0.8-1.9h4.8
			c-0.1,2-0.8,3.6-2.1,4.7C165.1,33.7,163.2,34.3,160.8,34.3z"/>
		<path class="st0" d="M174.9,34.3c-1.5,0-2.8-0.4-3.8-1.2c-1-0.8-1.5-1.9-1.5-3.5c0-3.4,2.7-5.1,8.2-5.1h1.5v-0.4
			c0-0.8-0.1-1.4-0.4-1.8c-0.3-0.4-0.8-0.6-1.6-0.6c-1.2,0-1.9,0.6-2.1,1.8h-5c0.1-1.8,0.8-3.2,2.2-4.1c1.3-0.9,3.1-1.4,5.2-1.4
			c2.2,0,3.9,0.5,5.1,1.4s1.8,2.4,1.8,4.4v10h-5.1v-1.8C178.5,33.6,177,34.3,174.9,34.3z M176.7,30.7c0.8,0,1.4-0.2,1.9-0.6
			c0.5-0.4,0.7-0.9,0.7-1.6v-0.9H178c-1.1,0-1.9,0.1-2.3,0.4c-0.5,0.2-0.7,0.7-0.7,1.3C174.9,30.3,175.5,30.7,176.7,30.7z"/>
		<path class="st0" d="M187.3,34V18.5h5.3V21c0.5-0.9,1.1-1.6,2-2.1s1.9-0.8,3.1-0.8c1.6,0,2.8,0.5,3.7,1.5c0.9,1,1.4,2.4,1.4,4.3
			V34h-5.3v-9c0-1.7-0.7-2.6-2.2-2.6c-0.8,0-1.4,0.2-1.9,0.7c-0.5,0.5-0.7,1.2-0.7,2.2V34H187.3z"/>
		<path class="st0" d="M217.2,34.3c-3.6,0-5.4-1.8-5.4-5.3v-6.9h-1.9v-3.6h1.9v-3.2h5.3v3.2h3v3.6h-3v6.4c0,1.1,0.5,1.6,1.6,1.6
			c0.5,0,1-0.1,1.5-0.3v4C218.9,34.2,218,34.3,217.2,34.3z"/>
		<path class="st0" d="M222.2,34V11.7h5.3V21c0.5-0.9,1.1-1.6,2-2.1c0.9-0.5,1.9-0.8,3.1-0.8c1.6,0,2.8,0.5,3.7,1.5
			c0.9,1,1.4,2.4,1.4,4.3V34h-5.3v-9c0-1.7-0.7-2.6-2.2-2.6c-0.8,0-1.4,0.2-1.9,0.7c-0.5,0.5-0.7,1.2-0.7,2.2V34H222.2z"/>
		<path class="st0" d="M245.2,16.2c-0.6,0.5-1.3,0.8-2.1,0.8s-1.5-0.3-2.1-0.8c-0.6-0.5-0.8-1.2-0.8-2s0.3-1.4,0.8-2
			c0.6-0.5,1.2-0.8,2.1-0.8s1.5,0.3,2.1,0.8c0.6,0.5,0.8,1.2,0.8,2S245.8,15.7,245.2,16.2z M240.5,34V18.5h5.3V34H240.5z"/>
		<path class="st0" d="M260,33c-1.2,0.9-3,1.3-5.2,1.3c-2.2,0-3.9-0.4-5.2-1.3c-1.2-0.9-1.9-2.2-1.9-3.9h4.9c0.1,0.6,0.3,1,0.6,1.3
			c0.3,0.3,0.8,0.4,1.6,0.4c1.3,0,1.9-0.4,1.9-1.3c0-0.4-0.2-0.7-0.6-0.9c-0.4-0.2-1.2-0.4-2.2-0.5c-2.1-0.3-3.6-0.8-4.5-1.5
			c-0.9-0.7-1.4-1.9-1.4-3.5c0-1.6,0.6-2.9,1.9-3.8c1.3-0.9,2.8-1.3,4.7-1.3c4.2,0,6.5,1.7,6.8,5h-4.8c-0.2-1-0.9-1.5-2-1.5
			c-0.6,0-1,0.1-1.3,0.3c-0.3,0.2-0.5,0.5-0.5,0.9c0,0.4,0.2,0.6,0.6,0.8c0.4,0.2,1.1,0.3,2,0.5c2.2,0.3,3.9,0.8,4.9,1.5
			c1,0.7,1.5,1.9,1.5,3.5C261.9,30.8,261.2,32.1,260,33z"/>
		<path class="st0" d="M151,67.1l-3.4-3.5c-0.8,0.2-1.7,0.3-2.7,0.3c-3.4,0-6.1-1-8.1-3c-2-2-3-4.6-3-7.8v-0.2
			c0-3.2,1.1-5.8,3.2-7.8c2.1-2,4.8-3,8-3c3.3,0,6,1,8.1,2.9c2.1,1.9,3.1,4.5,3.1,7.7v0.2c0,3.7-1.3,6.6-3.9,8.6l2.1,2.1L151,67.1z
			 M140.2,53.1c0,3.2,1,5.1,3,5.9l3.4-3.1l1.9,1.9c0.9-1.1,1.4-2.7,1.4-4.7v-0.2c0-1.9-0.4-3.3-1.3-4.4c-0.9-1.1-2.1-1.6-3.6-1.6
			s-2.7,0.5-3.5,1.6c-0.9,1-1.3,2.5-1.3,4.4V53.1z"/>
		<path class="st0" d="M158.9,63.5V42.4h8.3c2.8,0,4.9,0.6,6.4,1.7c1.5,1.1,2.2,2.8,2.2,5v0.1c0,2.7-1.3,4.6-3.8,5.6l5.1,8.8h-6.4
			l-4.3-7.6h-1.4v7.6H158.9z M164.9,52h2c2,0,3-0.9,3-2.6v-0.1c0-1.6-1-2.4-3-2.4h-2V52z"/>
		<path class="st0" d="M191.5,63.9c-2.4,0-4.4-0.7-5.9-2.1c-1.5-1.4-2.3-3.3-2.3-5.8v-0.2c0-2.5,0.8-4.5,2.3-5.9
			c1.6-1.4,3.5-2.2,5.9-2.2c1.3,0,2.5,0.2,3.6,0.6s2,1.1,2.7,2.1c0.7,1,1.2,2.2,1.3,3.7h-5c-0.2-1.5-1.1-2.2-2.5-2.2
			c-0.9,0-1.7,0.3-2.2,1c-0.5,0.7-0.8,1.6-0.8,2.9v0.2c0,2.7,1,4.1,3,4.1c0.7,0,1.4-0.2,1.8-0.7c0.5-0.4,0.8-1.1,0.8-1.9h4.8
			c-0.1,2-0.8,3.6-2.1,4.7C195.9,63.3,194,63.9,191.5,63.9z"/>
		<path class="st0" d="M214.9,61.7c-1.6,1.4-3.6,2.2-6.1,2.2c-2.4,0-4.5-0.7-6.1-2.1c-1.6-1.4-2.4-3.3-2.4-5.8v-0.2
			c0-2.4,0.8-4.4,2.4-5.9c1.6-1.5,3.6-2.2,6.1-2.2c2.4,0,4.4,0.7,6,2.2c1.6,1.4,2.4,3.4,2.4,5.8v0.2
			C217.3,58.3,216.5,60.3,214.9,61.7z M208.8,59.9c1,0,1.7-0.3,2.3-1c0.5-0.7,0.8-1.7,0.8-3v-0.2c0-2.7-1-4.1-3-4.1
			c-1,0-1.7,0.3-2.3,1c-0.5,0.7-0.8,1.7-0.8,3v0.2C205.8,58.6,206.8,59.9,208.8,59.9z"/>
		<path class="st0" d="M225,63.9c-1.9,0-3.4-0.7-4.7-2c-1.2-1.4-1.8-3.3-1.8-5.9v-0.2c0-2.5,0.6-4.5,1.8-5.9
			c1.2-1.4,2.8-2.1,4.7-2.1c2.2,0,3.8,0.9,4.8,2.6v-9h5.3v22.3h-5.3V61c-0.4,0.8-1,1.5-1.9,2.1C227.1,63.6,226.1,63.9,225,63.9z
			 M226.9,59.8c1,0,1.7-0.3,2.3-1c0.5-0.7,0.8-1.7,0.8-3v-0.2c0-1.3-0.3-2.3-0.8-3c-0.5-0.7-1.3-1-2.3-1c-2,0-3,1.3-3,4v0.2
			c0,1.3,0.3,2.3,0.8,2.9C225.2,59.5,225.9,59.8,226.9,59.8z"/>
		<path class="st0" d="M245.5,63.9c-2.5,0-4.5-0.7-6.1-2.1c-1.6-1.4-2.3-3.3-2.3-5.8v-0.2c0-2.4,0.8-4.4,2.4-5.9
			c1.6-1.5,3.6-2.2,6-2.2c2.3,0,4.1,0.7,5.6,2c1.5,1.3,2.2,3.3,2.2,6V57h-10.9c0.1,1,0.4,1.8,1,2.4c0.6,0.6,1.3,0.8,2.3,0.8
			c1.6,0,2.5-0.6,2.7-1.8h5c-0.2,1.8-1,3.1-2.3,4.1C249.7,63.4,247.8,63.9,245.5,63.9z M242.5,54h5.7c-0.1-1.9-1-2.9-2.7-2.9
			c-0.8,0-1.5,0.3-2,0.8C243,52.4,242.7,53.1,242.5,54z"/>
		<path class="st0" d="M140.6,93.4c-3.6,0-5.4-1.8-5.4-5.3v-6.9h-1.9v-3.6h1.9v-3.2h5.3v3.2h3v3.6h-3v6.4c0,1.1,0.5,1.6,1.6,1.6
			c0.5,0,1-0.1,1.5-0.3v4C142.4,93.3,141.4,93.4,140.6,93.4z"/>
		<path class="st0" d="M159.4,91.3c-1.6,1.4-3.6,2.2-6.1,2.2c-2.4,0-4.5-0.7-6.1-2.1c-1.6-1.4-2.4-3.3-2.4-5.8v-0.2
			c0-2.4,0.8-4.4,2.4-5.9c1.6-1.5,3.6-2.2,6.1-2.2c2.4,0,4.4,0.7,6,2.2c1.6,1.4,2.4,3.4,2.4,5.8v0.2C161.8,87.9,161,89.8,159.4,91.3
			z M153.3,89.5c1,0,1.7-0.3,2.3-1c0.5-0.7,0.8-1.7,0.8-3v-0.2c0-2.7-1-4.1-3-4.1c-1,0-1.7,0.3-2.3,1c-0.5,0.7-0.8,1.7-0.8,3v0.2
			C150.3,88.1,151.3,89.5,153.3,89.5z"/>
		<path class="st0" d="M173.6,93.1L168,77.6h5.6l3.2,10l3.2-10h5.1l-5.6,15.5H173.6z"/>
		<path class="st0" d="M191.4,75.4c-0.6,0.5-1.3,0.8-2.1,0.8s-1.5-0.3-2.1-0.8c-0.6-0.5-0.8-1.2-0.8-2s0.3-1.4,0.8-2
			c0.6-0.5,1.2-0.8,2.1-0.8s1.5,0.3,2.1,0.8c0.6,0.5,0.8,1.2,0.8,2S192,74.9,191.4,75.4z M186.7,93.1V77.6h5.3v15.5H186.7z"/>
		<path class="st0" d="M202.5,93.4c-2.5,0-4.5-0.7-6.1-2.1c-1.6-1.4-2.3-3.3-2.3-5.8v-0.2c0-2.4,0.8-4.4,2.4-5.9
			c1.6-1.5,3.6-2.2,6-2.2c2.3,0,4.1,0.7,5.6,2c1.5,1.3,2.2,3.3,2.2,6v1.4h-10.9c0.1,1,0.4,1.8,1,2.4c0.6,0.6,1.3,0.8,2.3,0.8
			c1.6,0,2.5-0.6,2.7-1.8h5c-0.2,1.8-1,3.1-2.3,4.1C206.7,93,204.9,93.4,202.5,93.4z M199.5,83.6h5.7c-0.1-1.9-1-2.9-2.7-2.9
			c-0.8,0-1.5,0.3-2,0.8C200,82,199.7,82.7,199.5,83.6z"/>
		<path class="st0" d="M215.3,93.1l-4.7-15.5h5.5l2.2,9.3l2.6-9.3h4.3l2.3,9.3l2.5-9.3h5l-4.9,15.5h-5.1l-2.3-8.6l-2.4,8.6H215.3z"
			/>
		<path class="st0" d="M138.8,123c-1.5,0-2.8-0.4-3.8-1.2c-1-0.8-1.5-1.9-1.5-3.5c0-3.4,2.7-5.1,8.2-5.1h1.5v-0.4
			c0-0.8-0.1-1.4-0.4-1.8c-0.3-0.4-0.8-0.6-1.6-0.6c-1.2,0-1.9,0.6-2.1,1.8h-5c0.1-1.8,0.8-3.2,2.2-4.1c1.3-0.9,3.1-1.4,5.2-1.4
			c2.2,0,3.9,0.5,5.1,1.4c1.2,1,1.8,2.4,1.8,4.4v10h-5.1v-1.8C142.5,122.3,140.9,123,138.8,123z M140.7,119.4c0.8,0,1.4-0.2,1.9-0.6
			c0.5-0.4,0.7-0.9,0.7-1.6v-0.9h-1.4c-1.1,0-1.9,0.1-2.4,0.4c-0.5,0.2-0.7,0.7-0.7,1.3C138.8,118.9,139.4,119.4,140.7,119.4z"/>
		<path class="st0" d="M151.3,122.6v-15.5h5.3v2.5c0.5-0.9,1.1-1.6,2-2.1c0.9-0.5,1.9-0.8,3.1-0.8c1.6,0,2.8,0.5,3.7,1.5
			c0.9,1,1.4,2.4,1.4,4.3v10.1h-5.3v-9c0-1.7-0.7-2.6-2.2-2.6c-0.8,0-1.4,0.2-1.9,0.7c-0.5,0.5-0.7,1.2-0.7,2.2v8.7H151.3z"/>
		<path class="st0" d="M180.6,121.7c-1.2,0.9-3,1.3-5.2,1.3c-2.2,0-3.9-0.4-5.2-1.3c-1.2-0.9-1.9-2.2-1.9-3.9h4.9
			c0.1,0.6,0.3,1,0.6,1.3c0.3,0.3,0.8,0.4,1.6,0.4c1.3,0,1.9-0.4,1.9-1.3c0-0.4-0.2-0.7-0.6-0.9c-0.4-0.2-1.2-0.4-2.2-0.5
			c-2.1-0.3-3.6-0.8-4.5-1.5c-0.9-0.7-1.4-1.9-1.4-3.5c0-1.6,0.6-2.9,1.9-3.8c1.3-0.9,2.8-1.3,4.7-1.3c4.2,0,6.5,1.7,6.8,5h-4.8
			c-0.2-1-0.9-1.5-2-1.5c-0.6,0-1,0.1-1.3,0.3c-0.3,0.2-0.5,0.5-0.5,0.9c0,0.4,0.2,0.6,0.6,0.8c0.4,0.2,1.1,0.3,2,0.5
			c2.2,0.3,3.9,0.8,4.9,1.5c1,0.7,1.5,1.9,1.5,3.5C182.5,119.5,181.9,120.8,180.6,121.7z"/>
		<path class="st0" d="M187.4,122.6l-4.7-15.5h5.5l2.2,9.3l2.6-9.3h4.3l2.3,9.3l2.5-9.3h5l-4.9,15.5h-5.1L195,114l-2.4,8.6H187.4z"
			/>
		<path class="st0" d="M215.6,123c-2.5,0-4.5-0.7-6.1-2.1c-1.6-1.4-2.3-3.3-2.3-5.8v-0.2c0-2.4,0.8-4.4,2.4-5.9
			c1.6-1.5,3.6-2.2,6-2.2c2.3,0,4.1,0.7,5.6,2c1.5,1.3,2.2,3.3,2.2,6v1.4h-10.9c0.1,1,0.4,1.8,1,2.4c0.6,0.6,1.3,0.8,2.3,0.8
			c1.6,0,2.5-0.6,2.7-1.8h5c-0.2,1.8-1,3.1-2.3,4.1C219.7,122.5,217.9,123,215.6,123z M212.6,113.2h5.7c-0.1-1.9-1-2.9-2.7-2.9
			c-0.8,0-1.5,0.3-2,0.8C213,111.5,212.7,112.2,212.6,113.2z"/>
		<path class="st0" d="M225.4,122.6v-15.5h5.3v3.1c0.9-2.2,2.6-3.3,5-3.3v4.9c-3.3-0.1-5,1-5,3.4v7.3H225.4z"/>
		<path class="st0" d="M249,121.7c-1.2,0.9-3,1.3-5.2,1.3c-2.2,0-3.9-0.4-5.2-1.3c-1.2-0.9-1.9-2.2-1.9-3.9h4.9
			c0.1,0.6,0.3,1,0.6,1.3c0.3,0.3,0.8,0.4,1.6,0.4c1.3,0,1.9-0.4,1.9-1.3c0-0.4-0.2-0.7-0.6-0.9c-0.4-0.2-1.2-0.4-2.2-0.5
			c-2.1-0.3-3.6-0.8-4.5-1.5c-0.9-0.7-1.4-1.9-1.4-3.5c0-1.6,0.6-2.9,1.9-3.8c1.3-0.9,2.8-1.3,4.7-1.3c4.2,0,6.5,1.7,6.8,5h-4.8
			c-0.2-1-0.9-1.5-2-1.5c-0.6,0-1,0.1-1.3,0.3c-0.3,0.2-0.5,0.5-0.5,0.9c0,0.4,0.2,0.6,0.6,0.8c0.4,0.2,1.1,0.3,2,0.5
			c2.2,0.3,3.9,0.8,4.9,1.5c1,0.7,1.5,1.9,1.5,3.5C250.8,119.5,250.2,120.8,249,121.7z"/>
		<path class="st0" d="M255.5,123c-0.9,0-1.6-0.3-2.2-0.9c-0.6-0.6-0.9-1.3-0.9-2.1c0-0.8,0.3-1.5,0.9-2.1c0.6-0.6,1.3-0.9,2.2-0.9
			c0.9,0,1.6,0.3,2.2,0.9c0.6,0.6,0.9,1.3,0.9,2.1c0,0.8-0.3,1.5-0.9,2.1C257.1,122.7,256.4,123,255.5,123z"/>
	</g>
</g>
</svg>
