<?xml version="1.0" encoding="utf-8"?>
<!-- Generator: Adobe Illustrator 22.0.0, SVG Export Plug-In . SVG Version: 6.00 Build 0)  -->
<svg version="1.1" id="Layer_1" xmlns="http://www.w3.org/2000/svg" xmlns:xlink="http://www.w3.org/1999/xlink" x="0px" y="0px"
	 viewBox="0 0 406.3 110.3" style="enable-background:new 0 0 406.3 110.3;" xml:space="preserve">
<style type="text/css">
	.st0{fill:#FFFFFF;}
</style>
<g>
	<g>
		<path class="st0" d="M34.8,13.7c-0.2-2.1-1.3-3.9-3.2-5.3S27,6.3,23.5,6.3c-4,0-7.1,1-9.4,3s-3.4,4.9-3.4,8.8s1.1,6.8,3.4,8.8
			s5.4,3,9.4,3c3.6,0,6.4-0.7,8.3-2.2s2.9-3.4,3.1-5.9h9c-0.1,4.5-2,8.1-5.5,10.6s-8.5,3.8-14.8,3.8c-3.2,0-6-0.4-8.6-1.1
			s-4.8-1.8-6.7-3.3s-3.3-3.4-4.4-5.7s-1.5-5-1.5-8s0.5-5.7,1.5-8s2.5-4.2,4.4-5.7s4.1-2.6,6.7-3.3S20.3,0,23.5,0
			c6.3,0,11.1,1.2,14.7,3.7s5.4,5.8,5.6,10H34.8z"/>
		<path class="st0" d="M68.4,8.7c1.8,0,3.5,0.2,4.9,0.6s2.8,0.9,3.9,1.7s2,1.7,2.6,3s0.9,2.6,0.9,4.3v17.1h-7.5V20.6
			c0-2.1-0.6-3.6-1.9-4.5s-3.2-1.4-5.7-1.4c-1.1,0-2.2,0.1-3.2,0.4s-1.9,0.7-2.8,1.2s-1.6,1.3-2.1,2.3s-0.8,2.2-0.8,3.5v13.1h-7.5
			V0.5h7.5v12.2h0.2C59.7,10,63.5,8.7,68.4,8.7z"/>
		<path class="st0" d="M119.9,22.3c0,0.5,0,1.1-0.1,1.8h-26c0.5,4.5,3.6,6.8,9.4,6.8c1.4,0,2.6-0.1,3.7-0.4s1.9-0.6,2.4-1
			s1-0.8,1.3-1.2s0.5-0.8,0.6-1.2h8.3c-0.1,1-0.4,1.9-0.8,2.7s-1,1.6-1.8,2.4s-1.8,1.5-3,2s-2.7,1-4.5,1.3s-3.9,0.5-6.3,0.5
			c-5.6,0-9.9-1.2-12.8-3.6s-4.4-5.8-4.4-10.2c0-4.4,1.4-7.8,4.3-10.2s7.1-3.6,12.6-3.6s9.7,1.2,12.6,3.6S119.9,17.9,119.9,22.3z
			 M103,13.7c-5,0-8,1.8-8.9,5.4h17.8C111,15.5,108,13.7,103,13.7z"/>
		<path class="st0" d="M183.6,1v34.3h-15.8V14h-0.4l-8.7,21.3h-11.2l-8.8-21.4h-0.4v21.4h-14.8V1h23.3l6.1,16.3h0.4l6-16.3H183.6z"
			/>
		<path class="st0" d="M230.8,31.1c0,0.7,0,1.3,0,1.5s0,0.7,0.1,1.1s0.2,0.8,0.3,1.2v0.3H216c-0.3-0.4-0.4-1.3-0.4-2.6v-0.9
			c-1.3,1.4-3.3,2.6-5.8,3.4s-5.7,1.3-9.2,1.3c-1.6,0-3.1-0.1-4.5-0.3s-2.7-0.5-3.9-0.9s-2.3-1-3.2-1.6s-1.6-1.5-2.1-2.5
			S186,29,186,27.7c0-1.5,0.2-2.8,0.7-3.9s1.2-1.9,2.1-2.6s2.1-1.1,3.3-1.5s2.8-0.5,4.5-0.7l15.1-1.1c1-0.1,1.8-0.2,2.2-0.5
			s0.7-0.6,0.7-1.1c0-0.6-0.4-1-1.2-1.3s-2-0.4-3.7-0.4c-3.1,0-5,0.8-5.7,2.3h-16.4c0.1-1.3,0.3-2.4,0.8-3.3s1.1-1.8,2-2.4
			s1.9-1.2,3.1-1.7s2.6-0.8,4.3-1.1s3.4-0.4,5.3-0.5s3.9-0.2,6.3-0.2c2.5,0,4.6,0,6.4,0.1s3.5,0.2,5.2,0.5s3.1,0.5,4.2,0.9
			s2.1,0.9,3,1.6s1.5,1.4,1.9,2.3s0.6,2,0.6,3.2V31.1z M215.3,24v-0.7c-0.5,0.3-1.3,0.5-2.4,0.6l-7.5,0.9c-1.2,0.1-2,0.4-2.6,0.8
			s-0.8,0.9-0.8,1.7c0,0.8,0.3,1.3,1,1.6s1.7,0.5,3.1,0.5c1.7,0,3.2-0.2,4.5-0.5s2.4-1,3.3-1.8S215.3,25.3,215.3,24z"/>
		<path class="st0" d="M263,19.4l15.1,15.8h-19.1l-7.1-7.8l-3.4,2.5v5.3H233V0.5h15.5v16.8l10.1-8.1h18.1L263,19.4z"/>
		<path class="st0" d="M321.5,22.2c0,1.2,0,2.2-0.1,3h-30.5c0.2,1.4,0.9,2.5,2,3.2s2.9,1.1,5.3,1.1c3.5,0,5.7-0.7,6.4-2.2h16.5
			c-0.1,0.9-0.3,1.6-0.6,2.3s-0.7,1.4-1.4,2.1s-1.5,1.4-2.6,1.9s-2.5,1-4.1,1.5s-3.6,0.8-6.1,1s-5.2,0.3-8.3,0.3
			c-4.3,0-8-0.3-11-0.9s-5.5-1.5-7.3-2.8s-3.1-2.7-3.9-4.4s-1.2-3.7-1.2-6.1c0-1.9,0.3-3.5,0.8-5s1.3-2.8,2.5-4s2.6-2.2,4.4-2.9
			s4-1.4,6.7-1.8s5.7-0.6,9.1-0.6c4.2,0,7.8,0.3,10.8,0.9s5.4,1.6,7.3,2.8s3.2,2.7,4,4.5S321.5,19.9,321.5,22.2z M298.1,15
			c-2.2,0-3.8,0.3-5,0.9s-1.9,1.5-2.2,2.6h14.3c-0.3-1.2-1.1-2.1-2.2-2.6S300.3,15,298.1,15z"/>
		<path class="st0" d="M323.6,9.2h15.3v3.9h0.3c1.8-1.6,3.8-2.8,6.1-3.5s5.2-1.1,8.8-1.1c1.3,0,2.5,0.1,3.6,0.2v13.7
			c-1.9-0.4-4-0.5-6.3-0.5c-0.9,0-1.7,0-2.5,0.1s-1.6,0.1-2.4,0.3s-1.6,0.3-2.3,0.6s-1.4,0.6-2,0.9s-1.2,0.9-1.6,1.4s-0.8,1.2-1.1,2
			s-0.4,1.6-0.4,2.6v5.5h-15.5V9.2z"/>
		<path class="st0" d="M387.2,16.8c-0.6-1.5-2.6-2.3-6-2.3c-2.1,0-3.5,0.1-4.3,0.4s-1.2,0.7-1.2,1.2c0,0.5,0.3,0.8,0.8,1
			s1.5,0.4,3,0.5l14.8,1.1c2,0.1,3.6,0.4,4.9,0.7s2.5,0.8,3.5,1.4s1.7,1.5,2.2,2.6s0.7,2.4,0.7,3.9c0,1.1-0.2,2.1-0.5,3
			s-0.8,1.6-1.4,2.3s-1.4,1.2-2.4,1.7s-2.1,0.8-3.3,1.1s-2.6,0.5-4.3,0.7s-3.4,0.3-5.2,0.3s-3.9,0.1-6.3,0.1c-2.3,0-4.2,0-5.9-0.1
			s-3.4-0.2-5.1-0.3s-3.1-0.4-4.3-0.7s-2.3-0.7-3.4-1.1s-1.9-1-2.6-1.7s-1.2-1.4-1.6-2.3s-0.6-1.9-0.7-3.1h17.7c0.4,1,1,1.7,1.9,2.1
			s2.3,0.6,4.1,0.6c2.4,0,4-0.2,4.8-0.5s1.3-0.8,1.3-1.4c0-0.5-0.2-0.9-0.7-1.1s-1.4-0.4-2.8-0.5l-13.6-1.2c-1.6-0.1-3-0.3-4.2-0.6
			s-2.3-0.5-3.3-0.9s-1.9-0.9-2.5-1.5s-1.1-1.3-1.5-2.2s-0.5-1.9-0.5-3.1c0-1.3,0.2-2.4,0.6-3.3s1.1-1.8,2-2.4s1.9-1.2,3.1-1.6
			s2.6-0.8,4.3-1s3.5-0.4,5.2-0.5s3.9-0.1,6.3-0.1c2.1,0,4,0,5.7,0.1s3.3,0.2,5,0.3s3.1,0.4,4.3,0.7s2.3,0.6,3.4,1.1s1.9,1,2.6,1.6
			s1.2,1.3,1.6,2.2s0.6,1.8,0.7,2.9H387.2z"/>
		<path class="st0" d="M101.1,85.2l-2-4H80.7l-2,4H61.4L79.8,51H100l18.3,34.3H101.1z M90,62.9h-0.4c-1.3,2.8-2.8,6-4.5,9.4h9.4
			L90,62.9z"/>
		<path class="st0" d="M134.3,59.2v3.4h0.3c3.6-2.7,8.2-4.1,13.8-4.1c4.4,0,7.9,0.8,10.3,2.5s3.6,4.3,3.6,7.8v16.4h-15.6V74.1
			c0-1.7-0.5-2.9-1.4-3.6s-2.3-1.1-4.1-1.1c-0.9,0-1.7,0.1-2.4,0.3s-1.4,0.5-2.1,0.9s-1.2,1-1.5,1.8s-0.6,1.8-0.6,2.9v10H119v-26
			H134.3z"/>
		<path class="st0" d="M192.2,66.8c-0.6-1.5-2.6-2.3-6-2.3c-2.1,0-3.5,0.1-4.3,0.4s-1.2,0.7-1.2,1.2c0,0.5,0.3,0.8,0.8,1
			s1.5,0.4,3,0.5l14.8,1.1c2,0.1,3.6,0.4,4.9,0.7s2.5,0.8,3.5,1.4s1.7,1.5,2.2,2.6s0.7,2.4,0.7,3.9c0,1.1-0.2,2.1-0.5,3
			s-0.8,1.6-1.4,2.3s-1.4,1.2-2.4,1.7s-2.1,0.8-3.3,1.1s-2.6,0.5-4.3,0.7s-3.4,0.3-5.2,0.3s-3.9,0.1-6.3,0.1c-2.3,0-4.2,0-5.9-0.1
			s-3.4-0.2-5.1-0.3s-3.1-0.4-4.3-0.7s-2.3-0.7-3.4-1.1s-1.9-1-2.6-1.7s-1.2-1.4-1.6-2.3s-0.6-1.9-0.7-3.1h17.7c0.4,1,1,1.7,1.9,2.1
			s2.3,0.6,4.1,0.6c2.4,0,4-0.2,4.8-0.5s1.3-0.8,1.3-1.4c0-0.5-0.2-0.9-0.7-1.1s-1.4-0.4-2.8-0.5l-13.6-1.2c-1.6-0.1-3-0.3-4.2-0.6
			s-2.3-0.5-3.3-0.9s-1.9-0.9-2.5-1.5s-1.1-1.3-1.5-2.2s-0.5-1.9-0.5-3.1c0-1.3,0.2-2.4,0.6-3.3s1.1-1.8,2-2.4s1.9-1.2,3.1-1.6
			s2.6-0.8,4.3-1s3.5-0.4,5.2-0.5s3.9-0.1,6.3-0.1c2.1,0,4,0,5.7,0.1s3.3,0.2,5,0.3s3.1,0.4,4.3,0.7s2.3,0.6,3.4,1.1s1.9,1,2.6,1.6
			s1.2,1.3,1.6,2.2s0.6,1.8,0.7,2.9H192.2z"/>
		<path class="st0" d="M259.5,59.2h17l-13.1,26H249l-3.3-7.9c-0.4-0.9-0.8-1.9-1.2-3.1s-0.7-2-0.9-2.7l-0.4-1h-0.3
			c-0.8,2.4-1.6,4.6-2.5,6.7l-3.3,7.9h-15l-13.1-26h17.1l2.1,5.1c0.4,0.9,0.8,1.9,1.2,3s0.7,2,0.9,2.7l0.3,1h0.3
			c0.8-2.4,1.6-4.6,2.4-6.7l2.1-5.1h14.5l2.2,5.1c0.4,0.9,0.8,1.9,1.2,3s0.7,2,0.9,2.6l0.4,1h0.3c0.8-2.4,1.5-4.6,2.4-6.7
			L259.5,59.2z"/>
		<path class="st0" d="M321.5,72.2c0,1.2,0,2.2-0.1,3h-30.5c0.2,1.4,0.9,2.5,2,3.2s2.9,1.1,5.3,1.1c3.5,0,5.7-0.7,6.4-2.2h16.5
			c-0.1,0.9-0.3,1.6-0.6,2.3s-0.7,1.4-1.4,2.1s-1.5,1.4-2.6,1.9s-2.5,1-4.1,1.5s-3.6,0.8-6.1,1s-5.2,0.3-8.3,0.3
			c-4.3,0-8-0.3-11-0.9s-5.5-1.5-7.3-2.8s-3.1-2.7-3.9-4.4s-1.2-3.7-1.2-6.1c0-1.9,0.3-3.5,0.8-5s1.3-2.8,2.5-4s2.6-2.2,4.4-2.9
			s4-1.4,6.7-1.8s5.7-0.6,9.1-0.6c4.2,0,7.8,0.3,10.8,0.9s5.4,1.6,7.3,2.8s3.2,2.7,4,4.5S321.5,69.9,321.5,72.2z M298.1,65
			c-2.2,0-3.8,0.3-5,0.9s-1.9,1.5-2.2,2.6h14.3c-0.3-1.2-1.1-2.1-2.2-2.6S300.3,65,298.1,65z"/>
		<path class="st0" d="M323.6,59.2h15.3v3.9h0.3c1.8-1.6,3.8-2.8,6.1-3.5s5.2-1.1,8.8-1.1c1.3,0,2.5,0.1,3.6,0.2v13.7
			c-1.9-0.4-4-0.5-6.3-0.5c-0.9,0-1.7,0-2.5,0.1s-1.6,0.1-2.4,0.3s-1.6,0.3-2.3,0.6s-1.4,0.6-2,0.9s-1.2,0.9-1.6,1.4s-0.8,1.2-1.1,2
			s-0.4,1.6-0.4,2.6v5.5h-15.5V59.2z"/>
		<path class="st0" d="M387.2,66.8c-0.6-1.5-2.6-2.3-6-2.3c-2.1,0-3.5,0.1-4.3,0.4s-1.2,0.7-1.2,1.2c0,0.5,0.3,0.8,0.8,1
			s1.5,0.4,3,0.5l14.8,1.1c2,0.1,3.6,0.4,4.9,0.7s2.5,0.8,3.5,1.4s1.7,1.5,2.2,2.6s0.7,2.4,0.7,3.9c0,1.1-0.2,2.1-0.5,3
			s-0.8,1.6-1.4,2.3s-1.4,1.2-2.4,1.7s-2.1,0.8-3.3,1.1s-2.6,0.5-4.3,0.7s-3.4,0.3-5.2,0.3s-3.9,0.1-6.3,0.1c-2.3,0-4.2,0-5.9-0.1
			s-3.4-0.2-5.1-0.3s-3.1-0.4-4.3-0.7s-2.3-0.7-3.4-1.1s-1.9-1-2.6-1.7s-1.2-1.4-1.6-2.3s-0.6-1.9-0.7-3.1h17.7c0.4,1,1,1.7,1.9,2.1
			s2.3,0.6,4.1,0.6c2.4,0,4-0.2,4.8-0.5s1.3-0.8,1.3-1.4c0-0.5-0.2-0.9-0.7-1.1s-1.4-0.4-2.8-0.5l-13.6-1.2c-1.6-0.1-3-0.3-4.2-0.6
			s-2.3-0.5-3.3-0.9s-1.9-0.9-2.5-1.5s-1.1-1.3-1.5-2.2s-0.5-1.9-0.5-3.1c0-1.3,0.2-2.4,0.6-3.3s1.1-1.8,2-2.4s1.9-1.2,3.1-1.6
			s2.6-0.8,4.3-1s3.5-0.4,5.2-0.5s3.9-0.1,6.3-0.1c2.1,0,4,0,5.7,0.1s3.3,0.2,5,0.3s3.1,0.4,4.3,0.7s2.3,0.6,3.4,1.1s1.9,1,2.6,1.6
			s1.2,1.3,1.6,2.2s0.6,1.8,0.7,2.9H387.2z"/>
	</g>
	<rect x="204.8" y="102.3" class="st0" width="201.5" height="8"/>
</g>
</svg>
