<?xml version="1.0" encoding="utf-8"?>
<!-- Generator: Adobe Illustrator 22.0.0, SVG Export Plug-In . SVG Version: 6.00 Build 0)  -->
<svg version="1.1" id="Layer_1" xmlns="http://www.w3.org/2000/svg" xmlns:xlink="http://www.w3.org/1999/xlink" x="0px" y="0px"
	 viewBox="0 0 224.6 190.1" style="enable-background:new 0 0 224.6 190.1;" xml:space="preserve">
<style type="text/css">
	.st0{fill:#FFFFFF;}
	.st1{fill:#007AFF;}
	.st2{fill:#231F20;}
	.st3{fill:#FFF200;}
</style>
<g>
	<path class="st0" d="M105,187H12c-6.6,0-12-5.4-12-12V12C0,5.4,5.4,0,12,0h93c6.6,0,12,5.4,12,12v163C117,181.6,111.6,187,105,187z
		"/>
	<g>
		<path class="st1" d="M24.4,17.2c0,1.1-0.3,1.9-0.8,2.6s-1.3,1.2-2.3,1.5l0.5,0.8l-1.7,0.7l-0.7-1.1c-0.6,0.1-1.2,0.1-1.9,0.1
			c-2.3,0-4-0.4-5.2-1.1s-1.7-1.9-1.7-3.5s0.6-2.7,1.7-3.5s2.8-1.1,5.2-1.1s4,0.4,5.2,1.1S24.4,15.6,24.4,17.2z M18.9,17.5l0.6,1
			c0.3-0.3,0.5-0.7,0.5-1.3c0-0.6-0.2-1.1-0.6-1.4s-1.1-0.5-1.9-0.5s-1.4,0.2-1.9,0.5s-0.6,0.8-0.6,1.4s0.2,1.1,0.6,1.4
			s1.1,0.5,1.9,0.5c0.1,0,0.2,0,0.2,0l-0.6-0.9L18.9,17.5z"/>
		<path class="st1" d="M33.4,12.9h3.9v4.6c0,0.8-0.1,1.5-0.4,2s-0.7,1-1.2,1.3s-1.2,0.6-1.9,0.7s-1.6,0.2-2.7,0.2
			c-1,0-1.9-0.1-2.7-0.2s-1.4-0.4-1.9-0.7s-0.9-0.8-1.2-1.3s-0.4-1.2-0.4-2v-4.6h3.9v4.5c0,0.5,0.2,0.9,0.6,1.2s0.9,0.4,1.6,0.4
			c0.7,0,1.2-0.1,1.6-0.4s0.6-0.7,0.6-1.2V12.9z"/>
		<path class="st1" d="M42,15.1v1h6.6v2H42v1.1h7v2.3H38.1v-8.6h10.8v2.2H42z"/>
		<path class="st1" d="M57.5,15.5c-0.1-0.5-0.7-0.8-1.8-0.8c-0.6,0-1,0.1-1.3,0.2S54,15.1,54,15.3c0,0.2,0.1,0.3,0.2,0.4
			s0.5,0.1,0.9,0.2l3.7,0.3c0.6,0,1.1,0.1,1.5,0.2s0.8,0.3,1.1,0.5s0.5,0.5,0.7,0.8s0.2,0.7,0.2,1.1c0,0.4,0,0.7-0.1,1
			s-0.2,0.5-0.4,0.7s-0.4,0.4-0.7,0.6s-0.6,0.3-0.9,0.4s-0.7,0.2-1.2,0.2s-1,0.1-1.5,0.1s-1.1,0-1.8,0c-0.9,0-1.7,0-2.3-0.1
			s-1.2-0.2-1.8-0.3s-1-0.3-1.3-0.6s-0.6-0.5-0.8-0.9s-0.3-0.8-0.3-1.3H54c0.1,0.4,0.3,0.6,0.6,0.8s0.8,0.2,1.4,0.2
			c1.2,0,1.8-0.2,1.8-0.7c0-0.2-0.1-0.3-0.3-0.4s-0.5-0.1-0.9-0.2l-3.5-0.3c-0.5,0-0.9-0.1-1.2-0.2s-0.7-0.2-1-0.3s-0.6-0.3-0.7-0.5
			s-0.3-0.4-0.5-0.7s-0.2-0.6-0.2-1c0-0.4,0.1-0.8,0.3-1.2s0.4-0.6,0.8-0.8s0.8-0.4,1.3-0.5s1.1-0.2,1.7-0.3s1.4-0.1,2.2-0.1
			c0.8,0,1.6,0,2.2,0.1s1.2,0.1,1.7,0.3s0.9,0.3,1.3,0.5s0.6,0.5,0.8,0.8s0.3,0.7,0.3,1.2H57.5z"/>
		<path class="st1" d="M74.4,12.9v3h-4v5.6h-3.9v-5.6h-4v-3H74.4z"/>
		<path class="st1" d="M78.9,21.5H75v-8.6h3.9V21.5z"/>
		<path class="st1" d="M81.2,13.7c1.1-0.8,2.8-1.1,5.2-1.1s4,0.4,5.2,1.1s1.7,1.9,1.7,3.5s-0.6,2.7-1.7,3.5s-2.8,1.1-5.2,1.1
			s-4-0.4-5.2-1.1s-1.7-1.9-1.7-3.5S80.1,14.5,81.2,13.7z M84.5,18.6c0.4,0.3,1.1,0.5,1.9,0.5s1.4-0.2,1.9-0.5s0.6-0.8,0.6-1.4
			s-0.2-1.1-0.6-1.4s-1.1-0.5-1.9-0.5s-1.4,0.2-1.9,0.5s-0.6,0.8-0.6,1.4S84,18.3,84.5,18.6z"/>
		<path class="st1" d="M102.4,12.9h3.7v8.6h-4.5l-4.1-4.4h-0.1v4.4h-3.7v-8.6h4.5l4,4.3h0.1V12.9z"/>
	</g>
	<g>
		<path class="st2" d="M78.7,167.6c0-1.5,0-3,0-4.6l0,0c0.8,0,1.5,0,2.3,0c0-0.8,0-1.5,0-2.3c-0.8,0-1.5,0-2.3,0l0,0
			c0-0.8,0-1.5,0-2.3c1.5,0,3,0,4.6,0c0-0.8,0-1.5,0-2.3c0.8,0,1.5,0,2.3,0c0,0.8,0,1.5,0,2.3c0.8,0,1.5,0,2.3,0c0-1.5,0-3,0-4.6
			l0,0c0.1,0,0.2,0,0.3,0c2.2,0,4.4,0,6.6,0c0,0.8,0,1.5,0,2.3c0.8,0,1.5,0,2.3,0c0-0.8,0-1.5,0-2.3c-0.8,0-1.5,0-2.3,0
			c0-0.8,0-1.5,0-2.3c-1.5,0-3,0-4.6,0c0-1.5,0-3,0-4.5c-2.3,0-4.6,0-6.9,0c0,0.8,0,1.5,0,2.3c-1.5,0-3,0-4.5,0c0,1.5,0,3,0,4.6
			c0.8,0,1.5,0,2.3,0c0,0.8,0,1.5,0,2.3c-0.8,0-1.5,0-2.3,0c0,0.8,0,1.5,0,2.3c-0.8,0-1.5,0-2.3,0c0-0.8,0-1.5,0-2.3
			c-2.3,0-4.6,0-6.8,0c0-0.8,0-1.5,0-2.3c2.3,0,4.5,0,6.8,0c0-6.1,0-12.2,0-18.3c0.8,0,1.5,0,2.3,0l0,0c0,2.2,0,4.4,0,6.6
			c0,0.1,0,0.2,0,0.2c0.8,0,1.5,0,2.3,0c0-1.5,0-3,0-4.5c0.8,0,1.5,0,2.3,0c0,1.5,0,3,0,4.6c0.8,0,1.5,0,2.3,0l0,0
			c0,0.8,0,1.5,0,2.3c3.8,0,7.6,0,11.4,0c0,0.8,0,1.5,0,2.3c0.8,0,1.5,0,2.3,0c0,0.8,0,1.5,0,2.3l0,0c-0.8,0-1.5,0-2.3,0
			c0,0.8,0,1.5,0,2.3c0.8,0,1.5,0,2.3,0l0,0c0,1.5,0,3,0,4.6c0.8,0,1.5,0,2.3,0l0,0c0,1.5,0,3,0,4.6c-0.8,0-1.5,0-2.3,0
			c0,1.5,0,3,0,4.6c0.8,0,1.5,0,2.3,0l0,0c0,0.8,0,1.5,0,2.3c1.5,0,3,0,4.6,0c0,0.8,0,1.5,0,2.3c-2.3,0-4.5,0-6.8,0c0,1.5,0,3,0,4.6
			c-0.8,0-1.5,0-2.3,0c0-0.7,0-1.5,0-2.3c-1.5,0-3.1,0-4.6,0l0,0c0-0.8,0-1.5,0-2.3c-0.8,0-1.5,0-2.3,0c0-0.8,0-1.5,0-2.3
			c1.5,0,3,0,4.5,0c0-0.8,0-1.5,0-2.3c-3.8,0-7.6,0-11.4,0c0,0.7,0,1.5,0,2.3C81.7,167.5,80.2,167.5,78.7,167.6L78.7,167.6z
			 M92.4,160.7c0-0.8,0-1.5,0-2.3c-0.8,0-1.5,0-2.3,0c0,0.8,0,1.5,0,2.3C90.9,160.7,91.6,160.7,92.4,160.7c0,0.8,0,1.5,0,2.3
			c1.5,0,3,0,4.5,0c0-0.8,0-1.5,0-2.3C95.4,160.7,93.9,160.7,92.4,160.7z M87.8,160.7c-0.8,0-1.5,0-2.3,0c0,0.8,0,1.5,0,2.3
			c0.8,0,1.5,0,2.3,0C87.8,162.2,87.8,161.5,87.8,160.7z M92.4,149.3c0.8,0,1.5,0,2.3,0c0-0.8,0-1.5,0-2.3c-0.8,0-1.5,0-2.3,0
			C92.4,147.8,92.4,148.5,92.4,149.3z"/>
		<path class="st2" d="M58.2,142.4c0-5.3,0-10.6,0-16c5.3,0,10.6,0,16,0c0,5.3,0,10.6,0,16C68.8,142.4,63.5,142.4,58.2,142.4z
			 M60.4,128.7c0,3.8,0,7.6,0,11.4c3.8,0,7.6,0,11.4,0c0-3.8,0-7.6,0-11.4C68,128.7,64.3,128.7,60.4,128.7z"/>
		<path class="st2" d="M106.1,142.4c-5.3,0-10.6,0-16,0c0-5.3,0-10.6,0-16c5.3,0,10.6,0,16,0C106.1,131.8,106.1,137.1,106.1,142.4z
			 M103.8,128.7c-3.8,0-7.6,0-11.4,0c0,3.8,0,7.6,0,11.4c3.8,0,7.6,0,11.4,0C103.8,136.3,103.8,132.6,103.8,128.7z"/>
		<path class="st2" d="M58.2,158.4c5.3,0,10.6,0,16,0c0,5.3,0,10.6,0,16c-5.3,0-10.6,0-16,0C58.2,169.1,58.2,163.8,58.2,158.4z
			 M71.8,160.7c-3.8,0-7.6,0-11.4,0c0,3.8,0,7.6,0,11.4c3.8,0,7.6,0,11.4,0C71.8,168.3,71.8,164.5,71.8,160.7z"/>
		<path class="st2" d="M78.7,135.6c0-1.5,0-3,0-4.6c-0.8,0-1.5,0-2.3,0c0-1.5,0-3,0-4.6c3.8,0,7.6,0,11.4,0c0,1.5,0,3,0,4.5
			c-0.8,0-1.5,0-2.3,0c0,0.8,0,1.5,0,2.3c0.7,0,1.5,0,2.3,0c0,1.5,0,3,0,4.6c-0.8,0-1.5,0-2.3,0c0-0.8,0-1.5,0-2.3
			c-0.8,0-1.5,0-2.3,0c0-0.8,0-1.5,0-2.3c-0.8,0-1.5,0-2.3,0c0,0.7,0,1.5,0,2.3C80.2,135.6,79.5,135.6,78.7,135.6
			C78.7,135.6,78.7,135.6,78.7,135.6z M81,131c0.8,0,1.5,0,2.3,0c0-0.8,0-1.5,0-2.3c-0.8,0-1.5,0-2.3,0C81,129.5,81,130.2,81,131z"
			/>
		<path class="st2" d="M69.6,147c0,0.8,0,1.5,0,2.3c1.5,0,3,0,4.6,0c0,0.8,0,1.5,0,2.3c-2.3,0-4.5,0-6.8,0c0,1.5,0,3,0,4.6
			c-3,0-6.1,0-9.1,0c0-1.5,0-3,0-4.5c0.7,0,1.5,0,2.3,0c0,0.7,0,1.5,0,2.3c1.5,0,3,0,4.6,0c0-2.3,0-4.6,0-6.8l0,0
			C66.5,147,68,147,69.6,147L69.6,147z"/>
		<path class="st2" d="M78.7,167.5c0,0.8,0,1.5,0,2.3c0.8,0,1.5,0,2.3,0c0,0.8,0,1.5,0,2.3c0.8,0,1.5,0,2.3,0c0,0.8,0,1.5,0,2.3
			c-2.3,0-4.5,0-6.8,0c0-2.3,0-4.5,0-6.8C77.2,167.6,77.9,167.6,78.7,167.5C78.7,167.6,78.7,167.5,78.7,167.5z"/>
		<path class="st2" d="M65,147c-1.5,0-3,0-4.6,0c0,0.8,0,1.5,0,2.3c-0.8,0-1.5,0-2.3,0c0-1.5,0-3,0-4.5c2.3,0,4.5,0,6.8,0
			C65,145.5,65,146.2,65,147C65,147,65,147,65,147z"/>
		<path class="st2" d="M106.1,151.6c-0.8,0-1.5,0-2.3,0c0-1.5,0-3,0-4.6c-0.8,0-1.5,0-2.3,0c0-0.8,0-1.5,0-2.3c1.5,0,3,0,4.5,0
			C106.1,147,106.1,149.3,106.1,151.6z"/>
		<path class="st2" d="M69.6,147c0-0.8,0-1.5,0-2.3c1.5,0,3,0,4.6,0c0,0.7,0,1.5,0,2.3C72.6,147,71.1,147,69.6,147
			C69.6,147,69.6,147,69.6,147z"/>
		<path class="st2" d="M101.5,156.1c0-0.8,0-1.5,0-2.3c0.8,0,1.5,0,2.3,0c0,0.7,0,1.5,0,2.3C103,156.1,102.3,156.1,101.5,156.1
			C101.5,156.1,101.5,156.1,101.5,156.1z"/>
		<path class="st2" d="M103.8,158.4c0.8,0,1.5,0,2.3,0c0,0.8,0,1.5,0,2.3c-0.7,0-1.5,0-2.3,0C103.8,159.9,103.8,159.2,103.8,158.4z"
			/>
		<path class="st2" d="M85.6,142.4c0-0.8,0-1.5,0-2.3c0.8,0,1.5,0,2.3,0c0,0.7,0,1.5,0,2.3C87.1,142.4,86.3,142.4,85.6,142.4
			C85.5,142.4,85.6,142.4,85.6,142.4z"/>
		<path class="st2" d="M78.7,163c-0.8,0-1.5,0-2.3,0c0-0.8,0-1.5,0-2.3c0.8,0,1.5,0,2.3,0l0,0C78.7,161.5,78.7,162.2,78.7,163
			L78.7,163z"/>
		<path class="st2" d="M101.5,165.3c0-0.8,0-1.5,0-2.3c0.8,0,1.5,0,2.3,0c0,0.7,0,1.5,0,2.3C103,165.3,102.3,165.3,101.5,165.3
			C101.5,165.3,101.5,165.3,101.5,165.3z"/>
		<path class="st2" d="M99.2,149.3c0.8,0,1.5,0,2.3,0c0,0.8,0,1.5,0,2.3c-0.8,0-1.5,0-2.3,0l0,0C99.3,150.8,99.3,150,99.2,149.3
			L99.2,149.3z"/>
		<path class="st2" d="M87.8,172.1c-0.8,0-1.5,0-2.3,0c0-0.8,0-1.5,0-2.3c0.7,0,1.5,0,2.3,0C87.8,170.6,87.8,171.3,87.8,172.1z"/>
		<path class="st2" d="M92.4,172.1c0,0.8,0,1.5,0,2.3c-0.8,0-1.5,0-2.3,0c0-0.7,0-1.5,0-2.3C90.9,172.1,91.6,172.1,92.4,172.1
			C92.4,172.1,92.4,172.1,92.4,172.1z"/>
		<path class="st2" d="M106.1,174.4c-0.8,0-1.5,0-2.3,0c0-0.8,0-1.5,0-2.3c0.7,0,1.5,0,2.3,0C106.1,172.9,106.1,173.6,106.1,174.4z"
			/>
		<path class="st2" d="M87.8,153.8c-0.8,0-1.5,0-2.3,0c0-0.8,0-1.5,0-2.3c0.7,0,1.5,0,2.3,0C87.8,152.3,87.8,153.1,87.8,153.8
			C87.8,153.9,87.8,153.8,87.8,153.8z"/>
		<path class="st2" d="M69.6,137.9c-2.3,0-4.5,0-6.8,0c0-2.3,0-4.5,0-6.8c2.3,0,4.5,0,6.8,0C69.6,133.3,69.6,135.6,69.6,137.9z"/>
		<path class="st2" d="M94.7,137.9c0-2.3,0-4.5,0-6.8c2.3,0,4.5,0,6.8,0c0,2.3,0,4.5,0,6.8C99.3,137.9,97,137.9,94.7,137.9z"/>
		<path class="st2" d="M62.7,169.8c0-2.3,0-4.5,0-6.8c2.3,0,4.5,0,6.8,0c0,2.3,0,4.5,0,6.8C67.3,169.8,65,169.8,62.7,169.8z"/>
	</g>
	<path class="st3" d="M82.1,117c18.5,0,33.5,15,33.5,33.5c0,18.5-15,33.5-33.5,33.5c-18.5,0-33.5-15-33.5-33.5
		C48.6,132.1,63.6,117,82.1,117 M82.1,111c-21.8,0-39.5,17.7-39.5,39.5s17.7,39.5,39.5,39.5s39.5-17.7,39.5-39.5S104,111,82.1,111
		L82.1,111z"/>
	<g>
		<path class="st0" d="M140,117.7c-2.1,0-3.7-0.4-4.7-1.3c-1.1-0.9-1.7-2.1-1.7-3.7h4.1c0.1,0.6,0.3,1.1,0.6,1.4
			c0.3,0.3,0.9,0.5,1.8,0.5c0.6,0,1.1-0.1,1.4-0.4c0.3-0.3,0.5-0.6,0.5-1.1c0-0.4-0.2-0.8-0.5-1c-0.3-0.2-1-0.4-1.9-0.5
			c-2.1-0.3-3.6-0.7-4.4-1.4s-1.2-1.8-1.2-3.3c0-1.4,0.5-2.5,1.6-3.4c1.1-0.9,2.5-1.3,4.2-1.3c3.7,0,5.7,1.6,5.9,4.7h-4
			c-0.2-1.1-0.8-1.6-1.9-1.6c-0.6,0-1,0.1-1.3,0.3c-0.3,0.2-0.5,0.5-0.5,0.9c0,0.4,0.2,0.8,0.5,1c0.3,0.2,0.9,0.4,1.8,0.5
			c2,0.2,3.5,0.7,4.4,1.3c0.9,0.7,1.4,1.8,1.4,3.3c0,1.4-0.5,2.6-1.6,3.6S141.9,117.7,140,117.7z"/>
		<path class="st0" d="M152.8,117.7c-1.7,0-3.1-0.5-4.2-1.5c-1.1-1-1.6-2.4-1.6-4.1v-0.2c0-1.8,0.6-3.2,1.7-4.2
			c1.1-1,2.5-1.5,4.2-1.5c1,0,1.8,0.1,2.6,0.4s1.4,0.8,1.9,1.5c0.5,0.7,0.8,1.6,0.9,2.6h-3.5c-0.2-1.1-0.8-1.6-1.8-1.6
			c-0.7,0-1.2,0.2-1.6,0.7c-0.4,0.5-0.5,1.2-0.5,2.1v0.2c0,1.9,0.7,2.9,2.2,2.9c0.5,0,1-0.2,1.3-0.5c0.3-0.3,0.5-0.8,0.6-1.4h3.4
			c-0.1,1.4-0.6,2.5-1.5,3.3C155.9,117.3,154.5,117.7,152.8,117.7z"/>
		<path class="st0" d="M162.8,117.7c-1.1,0-2-0.3-2.7-0.8c-0.7-0.5-1-1.4-1-2.5c0-2.4,1.9-3.6,5.8-3.6h1v-0.3c0-0.6-0.1-1-0.3-1.3
			s-0.6-0.4-1.1-0.4c-0.9,0-1.4,0.4-1.5,1.3h-3.5c0.1-1.3,0.6-2.3,1.5-2.9c0.9-0.7,2.2-1,3.7-1c1.6,0,2.8,0.3,3.7,1s1.3,1.7,1.3,3.1
			v7.1h-3.7v-1.3C165.4,117.2,164.3,117.7,162.8,117.7z M164.2,115.2c0.5,0,1-0.1,1.3-0.4c0.3-0.3,0.5-0.7,0.5-1.1V113h-1
			c-0.8,0-1.3,0.1-1.7,0.3c-0.3,0.2-0.5,0.5-0.5,0.9C162.8,114.8,163.3,115.2,164.2,115.2z"/>
		<path class="st0" d="M171.7,117.5v-11h3.8v1.8c0.3-0.6,0.8-1.1,1.4-1.5s1.3-0.6,2.2-0.6c1.1,0,2,0.4,2.6,1c0.6,0.7,1,1.7,1,3.1
			v7.1h-3.8v-6.4c0-1.2-0.5-1.8-1.6-1.8c-0.6,0-1,0.2-1.4,0.5c-0.3,0.4-0.5,0.9-0.5,1.6v6.2H171.7z"/>
		<path class="st0" d="M192.9,117.7c-2.6,0-3.9-1.3-3.9-3.8V109h-1.3v-2.6h1.3v-2.3h3.8v2.3h2.2v2.6h-2.2v4.5c0,0.8,0.4,1.2,1.1,1.2
			c0.4,0,0.7-0.1,1.1-0.2v2.9C194.1,117.6,193.5,117.7,192.9,117.7z"/>
		<path class="st0" d="M196.5,117.5v-15.8h3.8v6.6c0.3-0.6,0.8-1.1,1.4-1.5s1.3-0.6,2.2-0.6c1.1,0,2,0.4,2.6,1c0.6,0.7,1,1.7,1,3.1
			v7.1h-3.8v-6.4c0-1.2-0.5-1.8-1.6-1.8c-0.6,0-1,0.2-1.4,0.5c-0.3,0.4-0.5,0.9-0.5,1.6v6.2H196.5z"/>
		<path class="st0" d="M212.8,104.9c-0.4,0.4-0.9,0.5-1.5,0.5s-1.1-0.2-1.5-0.5c-0.4-0.4-0.6-0.8-0.6-1.4s0.2-1,0.6-1.4
			c0.4-0.4,0.9-0.6,1.5-0.6s1.1,0.2,1.5,0.6c0.4,0.4,0.6,0.8,0.6,1.4S213.2,104.5,212.8,104.9z M209.5,117.5v-11h3.8v11H209.5z"/>
		<path class="st0" d="M223.3,116.8c-0.9,0.6-2.1,0.9-3.7,0.9c-1.6,0-2.8-0.3-3.7-1c-0.9-0.6-1.3-1.6-1.4-2.8h3.5
			c0.1,0.4,0.2,0.7,0.4,0.9c0.2,0.2,0.6,0.3,1.1,0.3c0.9,0,1.3-0.3,1.3-0.9c0-0.3-0.2-0.5-0.5-0.6c-0.3-0.1-0.8-0.3-1.6-0.4
			c-1.5-0.2-2.6-0.6-3.2-1.1c-0.6-0.5-1-1.3-1-2.5c0-1.2,0.4-2.1,1.3-2.7c0.9-0.6,2-0.9,3.4-0.9c3,0,4.6,1.2,4.9,3.5h-3.4
			c-0.1-0.7-0.6-1.1-1.4-1.1c-0.4,0-0.7,0.1-0.9,0.2c-0.2,0.2-0.3,0.4-0.3,0.6c0,0.3,0.1,0.4,0.4,0.6c0.3,0.1,0.8,0.2,1.4,0.3
			c1.6,0.2,2.7,0.5,3.5,1.1c0.7,0.5,1.1,1.3,1.1,2.5C224.6,115.2,224.2,116.2,223.3,116.8z"/>
		<path class="st0" d="M145.9,141l-2.4-2.5c-0.6,0.1-1.2,0.2-1.9,0.2c-2.4,0-4.3-0.7-5.7-2.1c-1.4-1.4-2.1-3.3-2.1-5.5v-0.2
			c0-2.3,0.8-4.1,2.3-5.5c1.5-1.4,3.4-2.1,5.7-2.1c2.3,0,4.2,0.7,5.7,2c1.5,1.4,2.2,3.2,2.2,5.5v0.2c0,2.6-0.9,4.7-2.8,6.1l1.5,1.5
			L145.9,141z M138.2,131c0,2.2,0.7,3.6,2.2,4.2l2.4-2.2l1.3,1.4c0.7-0.8,1-1.9,1-3.4v-0.2c0-1.3-0.3-2.4-0.9-3.1
			c-0.6-0.7-1.5-1.1-2.5-1.1s-1.9,0.4-2.5,1.1c-0.6,0.7-0.9,1.8-0.9,3.1V131z"/>
		<path class="st0" d="M151.5,138.5v-15h5.9c2,0,3.5,0.4,4.5,1.2c1,0.8,1.6,2,1.6,3.6v0.1c0,1.9-0.9,3.2-2.7,3.9l3.6,6.2h-4.5
			l-3-5.4h-1v5.4H151.5z M155.8,130.3h1.4c1.4,0,2.2-0.6,2.2-1.8v-0.1c0-1.1-0.7-1.7-2.1-1.7h-1.4V130.3z"/>
		<path class="st0" d="M174.7,138.7c-1.7,0-3.1-0.5-4.2-1.5c-1.1-1-1.6-2.4-1.6-4.1v-0.2c0-1.8,0.6-3.2,1.7-4.2
			c1.1-1,2.5-1.5,4.2-1.5c1,0,1.8,0.1,2.6,0.4s1.4,0.8,1.9,1.5c0.5,0.7,0.8,1.6,0.9,2.6h-3.5c-0.2-1.1-0.8-1.6-1.8-1.6
			c-0.7,0-1.2,0.2-1.6,0.7c-0.4,0.5-0.5,1.2-0.5,2.1v0.2c0,1.9,0.7,2.9,2.2,2.9c0.5,0,1-0.2,1.3-0.5c0.3-0.3,0.5-0.8,0.6-1.4h3.4
			c-0.1,1.4-0.6,2.5-1.5,3.3C177.7,138.3,176.4,138.7,174.7,138.7z"/>
		<path class="st0" d="M191.2,137.2c-1.1,1-2.6,1.5-4.3,1.5c-1.7,0-3.2-0.5-4.3-1.5c-1.1-1-1.7-2.4-1.7-4.1v-0.2
			c0-1.7,0.6-3.1,1.7-4.2c1.1-1,2.6-1.6,4.3-1.6c1.7,0,3.2,0.5,4.3,1.5c1.1,1,1.7,2.4,1.7,4.1v0.2
			C192.9,134.8,192.4,136.1,191.2,137.2z M187,135.9c0.7,0,1.2-0.2,1.6-0.7c0.4-0.5,0.6-1.2,0.6-2.1v-0.2c0-1.9-0.7-2.9-2.2-2.9
			c-0.7,0-1.2,0.2-1.6,0.7c-0.4,0.5-0.6,1.2-0.6,2.1v0.2C184.8,135,185.5,135.9,187,135.9z"/>
		<path class="st0" d="M198.4,138.7c-1.3,0-2.4-0.5-3.3-1.4c-0.9-1-1.3-2.4-1.3-4.2v-0.2c0-1.8,0.4-3.2,1.3-4.2c0.9-1,2-1.5,3.3-1.5
			c1.6,0,2.7,0.6,3.4,1.8v-6.4h3.8v15.8h-3.8v-1.8c-0.3,0.6-0.7,1.1-1.3,1.5S199.2,138.7,198.4,138.7z M199.8,135.8
			c0.7,0,1.2-0.2,1.6-0.7c0.4-0.5,0.6-1.2,0.6-2.1v-0.2c0-0.9-0.2-1.6-0.6-2.1c-0.4-0.5-0.9-0.7-1.6-0.7c-1.4,0-2.2,1-2.2,2.9v0.2
			c0,0.9,0.2,1.6,0.6,2.1S199.1,135.8,199.8,135.8z"/>
		<path class="st0" d="M213,138.7c-1.8,0-3.2-0.5-4.3-1.5c-1.1-1-1.7-2.4-1.7-4.1v-0.2c0-1.7,0.6-3.1,1.7-4.2
			c1.1-1.1,2.5-1.6,4.2-1.6c1.6,0,2.9,0.5,4,1.4c1.1,1,1.6,2.4,1.6,4.2v1h-7.7c0.1,0.7,0.3,1.3,0.7,1.7c0.4,0.4,0.9,0.6,1.6,0.6
			c1.1,0,1.7-0.4,1.9-1.3h3.5c-0.2,1.2-0.7,2.2-1.7,2.9C216,138.4,214.7,138.7,213,138.7z M210.9,131.7h4c-0.1-1.4-0.7-2.1-1.9-2.1
			c-0.6,0-1,0.2-1.4,0.5C211.2,130.6,211,131.1,210.9,131.7z"/>
		<path class="st0" d="M138.5,159.7c-2.6,0-3.9-1.3-3.9-3.8V151h-1.3v-2.6h1.3v-2.3h3.8v2.3h2.2v2.6h-2.2v4.5c0,0.8,0.4,1.2,1.1,1.2
			c0.4,0,0.7-0.1,1.1-0.2v2.9C139.8,159.6,139.1,159.7,138.5,159.7z"/>
		<path class="st0" d="M151.8,158.2c-1.1,1-2.6,1.5-4.3,1.5c-1.7,0-3.2-0.5-4.3-1.5c-1.1-1-1.7-2.4-1.7-4.1v-0.2
			c0-1.7,0.6-3.1,1.7-4.2c1.1-1,2.6-1.6,4.3-1.6c1.7,0,3.2,0.5,4.3,1.5c1.1,1,1.7,2.4,1.7,4.1v0.2
			C153.5,155.8,153,157.1,151.8,158.2z M147.5,156.9c0.7,0,1.2-0.2,1.6-0.7c0.4-0.5,0.6-1.2,0.6-2.1v-0.2c0-1.9-0.7-2.9-2.2-2.9
			c-0.7,0-1.2,0.2-1.6,0.7c-0.4,0.5-0.6,1.2-0.6,2.1v0.2C145.4,156,146.1,156.9,147.5,156.9z"/>
		<path class="st0" d="M162,159.5l-4-11h4l2.3,7.1l2.2-7.1h3.6l-4,11H162z"/>
		<path class="st0" d="M174.6,146.9c-0.4,0.4-0.9,0.5-1.5,0.5s-1.1-0.2-1.5-0.5c-0.4-0.4-0.6-0.8-0.6-1.4s0.2-1,0.6-1.4
			c0.4-0.4,0.9-0.6,1.5-0.6s1.1,0.2,1.5,0.6c0.4,0.4,0.6,0.8,0.6,1.4S175,146.5,174.6,146.9z M171.2,159.5v-11h3.8v11H171.2z"/>
		<path class="st0" d="M182.5,159.7c-1.8,0-3.2-0.5-4.3-1.5c-1.1-1-1.7-2.4-1.7-4.1v-0.2c0-1.7,0.6-3.1,1.7-4.2
			c1.1-1.1,2.5-1.6,4.2-1.6c1.6,0,2.9,0.5,4,1.4c1.1,1,1.6,2.4,1.6,4.2v1h-7.7c0.1,0.7,0.3,1.3,0.7,1.7c0.4,0.4,0.9,0.6,1.6,0.6
			c1.1,0,1.7-0.4,1.9-1.3h3.5c-0.2,1.2-0.7,2.2-1.7,2.9C185.4,159.4,184.1,159.7,182.5,159.7z M180.4,152.7h4
			c-0.1-1.4-0.7-2.1-1.9-2.1c-0.6,0-1,0.2-1.4,0.5C180.7,151.6,180.5,152.1,180.4,152.7z"/>
		<path class="st0" d="M191.5,159.5l-3.3-11h3.9l1.6,6.6l1.8-6.6h3l1.6,6.6l1.8-6.6h3.6l-3.5,11h-3.6l-1.6-6.1l-1.7,6.1H191.5z"/>
		<path class="st0" d="M137.2,180.7c-1.1,0-2-0.3-2.7-0.8c-0.7-0.5-1.1-1.4-1.1-2.5c0-2.4,1.9-3.6,5.8-3.6h1.1v-0.3
			c0-0.6-0.1-1-0.3-1.3c-0.2-0.3-0.6-0.4-1.1-0.4c-0.9,0-1.4,0.4-1.5,1.3h-3.5c0.1-1.3,0.6-2.3,1.5-2.9s2.2-1,3.7-1
			c1.6,0,2.8,0.3,3.7,1c0.9,0.7,1.3,1.7,1.3,3.1v7.1h-3.7v-1.3C139.8,180.2,138.7,180.7,137.2,180.7z M138.5,178.2
			c0.5,0,1-0.1,1.3-0.4c0.3-0.3,0.5-0.7,0.5-1.1V176h-1c-0.8,0-1.3,0.1-1.7,0.3c-0.3,0.2-0.5,0.5-0.5,0.9
			C137.2,177.8,137.7,178.2,138.5,178.2z"/>
		<path class="st0" d="M146.1,180.5v-11h3.8v1.8c0.3-0.6,0.8-1.1,1.4-1.5s1.3-0.6,2.2-0.6c1.1,0,2,0.4,2.6,1c0.6,0.7,1,1.7,1,3.1
			v7.1h-3.8v-6.4c0-1.2-0.5-1.8-1.6-1.8c-0.6,0-1,0.2-1.4,0.5c-0.3,0.4-0.5,0.9-0.5,1.6v6.2H146.1z"/>
		<path class="st0" d="M166.9,179.8c-0.9,0.6-2.1,0.9-3.7,0.9c-1.6,0-2.8-0.3-3.7-1c-0.9-0.6-1.3-1.6-1.4-2.8h3.5
			c0.1,0.4,0.2,0.7,0.4,0.9c0.2,0.2,0.6,0.3,1.1,0.3c0.9,0,1.3-0.3,1.3-0.9c0-0.3-0.2-0.5-0.5-0.6c-0.3-0.1-0.8-0.3-1.6-0.4
			c-1.5-0.2-2.6-0.6-3.2-1.1c-0.6-0.5-1-1.3-1-2.5c0-1.2,0.4-2.1,1.3-2.7c0.9-0.6,2-0.9,3.4-0.9c3,0,4.6,1.2,4.9,3.5h-3.4
			c-0.1-0.7-0.6-1.1-1.4-1.1c-0.4,0-0.7,0.1-0.9,0.2c-0.2,0.2-0.3,0.4-0.3,0.6c0,0.3,0.1,0.4,0.4,0.6c0.3,0.1,0.8,0.2,1.4,0.3
			c1.6,0.2,2.7,0.5,3.5,1.1c0.7,0.5,1.1,1.3,1.1,2.5C168.2,178.2,167.8,179.2,166.9,179.8z"/>
		<path class="st0" d="M171.8,180.5l-3.3-11h3.9l1.6,6.6l1.8-6.6h3l1.6,6.6l1.8-6.6h3.6l-3.5,11h-3.6l-1.6-6.1l-1.7,6.1H171.8z"/>
		<path class="st0" d="M191.7,180.7c-1.8,0-3.2-0.5-4.3-1.5c-1.1-1-1.7-2.4-1.7-4.1v-0.2c0-1.7,0.6-3.1,1.7-4.2
			c1.1-1.1,2.5-1.6,4.2-1.6c1.6,0,2.9,0.5,4,1.4c1.1,1,1.6,2.4,1.6,4.2v1h-7.7c0.1,0.7,0.3,1.3,0.7,1.7c0.4,0.4,0.9,0.6,1.6,0.6
			c1.1,0,1.7-0.4,1.9-1.3h3.5c-0.2,1.2-0.7,2.2-1.7,2.9C194.7,180.4,193.4,180.7,191.7,180.7z M189.6,173.7h4
			c-0.1-1.4-0.7-2.1-1.9-2.1c-0.6,0-1,0.2-1.4,0.5C190,172.6,189.7,173.1,189.6,173.7z"/>
		<path class="st0" d="M198.7,180.5v-11h3.8v2.2c0.7-1.6,1.9-2.3,3.5-2.3v3.5c-2.4-0.1-3.5,0.7-3.5,2.4v5.2H198.7z"/>
		<path class="st0" d="M215.5,179.8c-0.9,0.6-2.1,0.9-3.7,0.9c-1.6,0-2.8-0.3-3.7-1c-0.9-0.6-1.3-1.6-1.4-2.8h3.5
			c0.1,0.4,0.2,0.7,0.4,0.9c0.2,0.2,0.6,0.3,1.1,0.3c0.9,0,1.3-0.3,1.3-0.9c0-0.3-0.2-0.5-0.5-0.6c-0.3-0.1-0.8-0.3-1.6-0.4
			c-1.5-0.2-2.6-0.6-3.2-1.1c-0.6-0.5-1-1.3-1-2.5c0-1.2,0.4-2.1,1.3-2.7c0.9-0.6,2-0.9,3.4-0.9c3,0,4.6,1.2,4.9,3.5h-3.4
			c-0.1-0.7-0.6-1.1-1.4-1.1c-0.4,0-0.7,0.1-0.9,0.2c-0.2,0.2-0.3,0.4-0.3,0.6c0,0.3,0.1,0.4,0.4,0.6c0.3,0.1,0.8,0.2,1.4,0.3
			c1.6,0.2,2.7,0.5,3.5,1.1c0.7,0.5,1.1,1.3,1.1,2.5C216.8,178.2,216.3,179.2,215.5,179.8z"/>
		<path class="st0" d="M220.1,180.7c-0.6,0-1.1-0.2-1.5-0.6c-0.4-0.4-0.6-0.9-0.6-1.5c0-0.6,0.2-1.1,0.6-1.5
			c0.4-0.4,0.9-0.6,1.5-0.6c0.6,0,1.2,0.2,1.6,0.6c0.4,0.4,0.6,0.9,0.6,1.5c0,0.6-0.2,1.1-0.6,1.5
			C221.2,180.5,220.7,180.7,220.1,180.7z"/>
	</g>
</g>
</svg>
